%TF.GenerationSoftware,KiCad,Pcbnew,9.0.7*%
%TF.CreationDate,2026-08-21T19:55:50+05:30*%
%TF.ProjectId,12v to 5 v bug converter,31327620-746f-4203-9520-762062756720,rev?*%
%TF.SameCoordinates,Original*%
%TF.FileFunction,Copper,L2,Bot*%
%TF.FilePolarity,Positive*%
%FSLAX46Y46*%
G04 Gerber Fmt 4.6, Leading zero omitted, Abs format (unit mm)*
G04 Created by KiCad (PCBNEW 9.0.7) date 2026-08-21 19:55:50*
%MOMM*%
%LPD*%
G01*
G04 APERTURE LIST*
G04 Aperture macros list*
%AMRoundRect*
0 Rectangle with rounded corners*
0 $1 Rounding radius*
0 $2 $3 $4 $5 $6 $7 $8 $9 X,Y pos of 4 corners*
0 Add a 4 corners polygon primitive as box body*
4,1,4,$2,$3,$4,$5,$6,$7,$8,$9,$2,$3,0*
0 Add four circle primitives for the rounded corners*
1,1,$1+$1,$2,$3*
1,1,$1+$1,$4,$5*
1,1,$1+$1,$6,$7*
1,1,$1+$1,$8,$9*
0 Add four rect primitives between the rounded corners*
20,1,$1+$1,$2,$3,$4,$5,0*
20,1,$1+$1,$4,$5,$6,$7,0*
20,1,$1+$1,$6,$7,$8,$9,0*
20,1,$1+$1,$8,$9,$2,$3,0*%
G04 Aperture macros list end*
%TA.AperFunction,ComponentPad*%
%ADD10C,1.600000*%
%TD*%
%TA.AperFunction,ComponentPad*%
%ADD11C,2.000000*%
%TD*%
%TA.AperFunction,ComponentPad*%
%ADD12RoundRect,0.249999X-0.850001X-0.850001X0.850001X-0.850001X0.850001X0.850001X-0.850001X0.850001X0*%
%TD*%
%TA.AperFunction,ComponentPad*%
%ADD13C,2.200000*%
%TD*%
%TA.AperFunction,ComponentPad*%
%ADD14RoundRect,0.250000X-0.550000X-0.550000X0.550000X-0.550000X0.550000X0.550000X-0.550000X0.550000X0*%
%TD*%
%TA.AperFunction,ComponentPad*%
%ADD15R,1.700000X1.700000*%
%TD*%
%TA.AperFunction,ComponentPad*%
%ADD16C,1.700000*%
%TD*%
%TA.AperFunction,ViaPad*%
%ADD17C,0.600000*%
%TD*%
%TA.AperFunction,Conductor*%
%ADD18C,0.300000*%
%TD*%
%TA.AperFunction,Conductor*%
%ADD19C,0.200000*%
%TD*%
G04 APERTURE END LIST*
D10*
%TO.P,1.7k,1*%
%TO.N,/a*%
X89340000Y-72550000D03*
%TO.P,1.7k,2*%
%TO.N,/b*%
X99500000Y-72550000D03*
%TD*%
%TO.P,3.5k,1*%
%TO.N,VCC*%
X89340000Y-68500000D03*
%TO.P,3.5k,2*%
%TO.N,/a*%
X99500000Y-68500000D03*
%TD*%
D11*
%TO.P,100u,1,1*%
%TO.N,/drain*%
X89500000Y-89500000D03*
%TO.P,100u,2,2*%
%TO.N,Net-(C3-Pad1)*%
X93500000Y-89500000D03*
%TD*%
D12*
%TO.P,1N5817,1,K*%
%TO.N,/drain*%
X103140000Y-72650000D03*
D13*
%TO.P,1N5817,2,A*%
%TO.N,GND*%
X113300000Y-72650000D03*
%TD*%
D14*
%TO.P,NE555,1,GND*%
%TO.N,GND*%
X98195000Y-78190000D03*
D10*
%TO.P,NE555,2,TRIG*%
%TO.N,/b*%
X98195000Y-80730000D03*
%TO.P,NE555,3,OUT*%
%TO.N,/gate*%
X98195000Y-83270000D03*
%TO.P,NE555,4,~{RST}*%
%TO.N,VCC*%
X98195000Y-85810000D03*
%TO.P,NE555,5,CONT*%
%TO.N,/c*%
X105815000Y-85810000D03*
%TO.P,NE555,6,THRES*%
%TO.N,/b*%
X105815000Y-83270000D03*
%TO.P,NE555,7,DISCH*%
%TO.N,/a*%
X105815000Y-80730000D03*
%TO.P,NE555,8,VCC*%
%TO.N,VCC*%
X105815000Y-78190000D03*
%TD*%
D15*
%TO.P,- battery +,1,1*%
%TO.N,VCC*%
X110500000Y-78725000D03*
D16*
%TO.P,- battery +,2,2*%
%TO.N,GND*%
X110500000Y-81265000D03*
%TD*%
D10*
%TO.P,30,1*%
%TO.N,Net-(C3-Pad1)*%
X102840000Y-68500000D03*
%TO.P,30,2*%
%TO.N,GND*%
X113000000Y-68500000D03*
%TD*%
D14*
%TO.P,100u,1*%
%TO.N,Net-(C3-Pad1)*%
X109794888Y-89000000D03*
D10*
%TO.P,100u,2*%
%TO.N,GND*%
X112294888Y-89000000D03*
%TD*%
%TO.P,0.01u,1*%
%TO.N,/b*%
X89500000Y-78450000D03*
%TO.P,0.01u,2*%
%TO.N,GND*%
X94500000Y-78450000D03*
%TD*%
%TO.P,0.01u,1*%
%TO.N,GND*%
X89500000Y-82500000D03*
%TO.P,0.01u,2*%
%TO.N,/c*%
X94500000Y-82500000D03*
%TD*%
D17*
%TO.N,/b*%
X96000000Y-83500000D03*
%TO.N,/c*%
X95000000Y-85000000D03*
X98000000Y-92000000D03*
%TO.N,/a*%
X95450000Y-72550000D03*
X100000000Y-75500000D03*
X114000000Y-75500000D03*
%TD*%
D18*
%TO.N,VCC*%
X110725000Y-78725000D02*
X110500000Y-78725000D01*
X113500000Y-81500000D02*
X110725000Y-78725000D01*
X115349000Y-66849000D02*
X115349000Y-79651000D01*
X114151000Y-65651000D02*
X115349000Y-66849000D01*
X92189000Y-65651000D02*
X114151000Y-65651000D01*
X115349000Y-79651000D02*
X113500000Y-81500000D01*
X89340000Y-68500000D02*
X92189000Y-65651000D01*
D19*
%TO.N,Net-(C3-Pad1)*%
X94500000Y-89500000D02*
X96500000Y-87500000D01*
X93500000Y-89500000D02*
X94500000Y-89500000D01*
D18*
%TO.N,GND*%
X99000000Y-76000000D02*
X98195000Y-76805000D01*
X99151000Y-76151000D02*
X99000000Y-76000000D01*
X107500000Y-78265000D02*
X107500000Y-76000000D01*
X107349000Y-76151000D02*
X99151000Y-76151000D01*
X98195000Y-76805000D02*
X98195000Y-78190000D01*
X110500000Y-81265000D02*
X107500000Y-78265000D01*
X107500000Y-76000000D02*
X107349000Y-76151000D01*
D19*
%TO.N,Net-(C3-Pad1)*%
X101739000Y-69601000D02*
X102840000Y-68500000D01*
X96500000Y-76000000D02*
X98000000Y-76000000D01*
X98000000Y-76000000D02*
X101739000Y-72261000D01*
X101739000Y-72261000D02*
X101739000Y-69601000D01*
X96500000Y-87500000D02*
X96601000Y-87399000D01*
X96601000Y-87399000D02*
X96601000Y-76101000D01*
X98000000Y-89000000D02*
X96500000Y-87500000D01*
X109794888Y-89000000D02*
X98000000Y-89000000D01*
X96601000Y-76101000D02*
X96500000Y-76000000D01*
%TO.N,/b*%
X96000000Y-84849943D02*
X96000000Y-83500000D01*
X94849943Y-86000000D02*
X96000000Y-84849943D01*
X87601000Y-86000000D02*
X94849943Y-86000000D01*
X87601000Y-79899000D02*
X87601000Y-86000000D01*
X87949000Y-79551000D02*
X87601000Y-79899000D01*
X89500000Y-78450000D02*
X88399000Y-79551000D01*
X88399000Y-79551000D02*
X87949000Y-79551000D01*
%TO.N,/c*%
X94500000Y-84500000D02*
X94500000Y-82500000D01*
X95000000Y-85000000D02*
X94500000Y-84500000D01*
X98500000Y-92500000D02*
X98000000Y-92000000D01*
X108181048Y-92500000D02*
X98500000Y-92500000D01*
X110895888Y-89785160D02*
X108181048Y-92500000D01*
X110895888Y-88214840D02*
X110895888Y-89785160D01*
X108491048Y-85810000D02*
X110895888Y-88214840D01*
X105815000Y-85810000D02*
X108491048Y-85810000D01*
%TO.N,/a*%
X114000000Y-75500000D02*
X100000000Y-75500000D01*
%TO.N,/b*%
X103275000Y-80730000D02*
X105815000Y-83270000D01*
X98195000Y-80730000D02*
X103275000Y-80730000D01*
X90631370Y-78450000D02*
X96531370Y-72550000D01*
X89500000Y-78450000D02*
X90631370Y-78450000D01*
X96531370Y-72550000D02*
X99500000Y-72550000D01*
%TO.N,/a*%
X95450000Y-72550000D02*
X99500000Y-68500000D01*
X89340000Y-72550000D02*
X95450000Y-72550000D01*
D18*
%TO.N,GND*%
X112294888Y-83059888D02*
X110500000Y-81265000D01*
X112294888Y-89000000D02*
X112294888Y-83059888D01*
%TD*%
%TA.AperFunction,Conductor*%
%TO.N,GND*%
G36*
X99196509Y-75755238D02*
G01*
X99252442Y-75797110D01*
X99267736Y-75823967D01*
X99290604Y-75879175D01*
X99290609Y-75879185D01*
X99378210Y-76010288D01*
X99378213Y-76010292D01*
X99489707Y-76121786D01*
X99489711Y-76121789D01*
X99620814Y-76209390D01*
X99620827Y-76209397D01*
X99766498Y-76269735D01*
X99766503Y-76269737D01*
X99921153Y-76300499D01*
X99921156Y-76300500D01*
X99921158Y-76300500D01*
X100078844Y-76300500D01*
X100078845Y-76300499D01*
X100233497Y-76269737D01*
X100379179Y-76209394D01*
X100431400Y-76174501D01*
X100510875Y-76121398D01*
X100577553Y-76100520D01*
X100579766Y-76100500D01*
X113420234Y-76100500D01*
X113487273Y-76120185D01*
X113489125Y-76121398D01*
X113620814Y-76209390D01*
X113620827Y-76209397D01*
X113766498Y-76269735D01*
X113766503Y-76269737D01*
X113921153Y-76300499D01*
X113921156Y-76300500D01*
X113921158Y-76300500D01*
X114078844Y-76300500D01*
X114078845Y-76300499D01*
X114233497Y-76269737D01*
X114379179Y-76209394D01*
X114505609Y-76124915D01*
X114572286Y-76104038D01*
X114639666Y-76122522D01*
X114686357Y-76174501D01*
X114698500Y-76228018D01*
X114698500Y-79330192D01*
X114678815Y-79397231D01*
X114662181Y-79417873D01*
X113587681Y-80492373D01*
X113526358Y-80525858D01*
X113456666Y-80520874D01*
X113412319Y-80492373D01*
X111886818Y-78966872D01*
X111853333Y-78905549D01*
X111850499Y-78879191D01*
X111850499Y-77827129D01*
X111850498Y-77827123D01*
X111850497Y-77827116D01*
X111844185Y-77768390D01*
X111844091Y-77767516D01*
X111793797Y-77632671D01*
X111793793Y-77632664D01*
X111707547Y-77517455D01*
X111707544Y-77517452D01*
X111592335Y-77431206D01*
X111592328Y-77431202D01*
X111457482Y-77380908D01*
X111457483Y-77380908D01*
X111397883Y-77374501D01*
X111397881Y-77374500D01*
X111397873Y-77374500D01*
X111397864Y-77374500D01*
X109602129Y-77374500D01*
X109602123Y-77374501D01*
X109542516Y-77380908D01*
X109407671Y-77431202D01*
X109407664Y-77431206D01*
X109292455Y-77517452D01*
X109292452Y-77517455D01*
X109206206Y-77632664D01*
X109206202Y-77632671D01*
X109155908Y-77767517D01*
X109150561Y-77817259D01*
X109149501Y-77827123D01*
X109149500Y-77827135D01*
X109149500Y-79622870D01*
X109149501Y-79622876D01*
X109155908Y-79682483D01*
X109206202Y-79817328D01*
X109206206Y-79817335D01*
X109292452Y-79932544D01*
X109292455Y-79932547D01*
X109407664Y-80018793D01*
X109407671Y-80018797D01*
X109441781Y-80031519D01*
X109542517Y-80069091D01*
X109602127Y-80075500D01*
X109612685Y-80075499D01*
X109679723Y-80095179D01*
X109700372Y-80111818D01*
X110370591Y-80782037D01*
X110307007Y-80799075D01*
X110192993Y-80864901D01*
X110099901Y-80957993D01*
X110034075Y-81072007D01*
X110017037Y-81135591D01*
X109384728Y-80503282D01*
X109384727Y-80503282D01*
X109345380Y-80557439D01*
X109248904Y-80746782D01*
X109183242Y-80948869D01*
X109183242Y-80948872D01*
X109150000Y-81158753D01*
X109150000Y-81371246D01*
X109183242Y-81581127D01*
X109183242Y-81581130D01*
X109248904Y-81783217D01*
X109345375Y-81972550D01*
X109384728Y-82026716D01*
X110017037Y-81394408D01*
X110034075Y-81457993D01*
X110099901Y-81572007D01*
X110192993Y-81665099D01*
X110307007Y-81730925D01*
X110370590Y-81747962D01*
X109738282Y-82380269D01*
X109738282Y-82380270D01*
X109792449Y-82419624D01*
X109981782Y-82516095D01*
X110183870Y-82581757D01*
X110393754Y-82615000D01*
X110606246Y-82615000D01*
X110816127Y-82581757D01*
X110816130Y-82581757D01*
X111018217Y-82516095D01*
X111207554Y-82419622D01*
X111261716Y-82380270D01*
X111261717Y-82380270D01*
X110629408Y-81747962D01*
X110692993Y-81730925D01*
X110807007Y-81665099D01*
X110900099Y-81572007D01*
X110965925Y-81457993D01*
X110982962Y-81394408D01*
X111615270Y-82026717D01*
X111615270Y-82026716D01*
X111654622Y-81972554D01*
X111751095Y-81783217D01*
X111816757Y-81581130D01*
X111816757Y-81581127D01*
X111850000Y-81371246D01*
X111850000Y-81158753D01*
X111836530Y-81073709D01*
X111845484Y-81004416D01*
X111890481Y-80950964D01*
X111957232Y-80930324D01*
X112024546Y-80949049D01*
X112046684Y-80966630D01*
X113085325Y-82005272D01*
X113085332Y-82005278D01*
X113170989Y-82062511D01*
X113191874Y-82076466D01*
X113261221Y-82105189D01*
X113310256Y-82125501D01*
X113331107Y-82129648D01*
X113339020Y-82131222D01*
X113435929Y-82150500D01*
X113435931Y-82150500D01*
X113564071Y-82150500D01*
X113627334Y-82137915D01*
X113689744Y-82125501D01*
X113808127Y-82076466D01*
X113914670Y-82005277D01*
X114005277Y-81914670D01*
X114005278Y-81914668D01*
X114012344Y-81907602D01*
X114012346Y-81907598D01*
X115287820Y-80632124D01*
X115349142Y-80598641D01*
X115418834Y-80603625D01*
X115474767Y-80645497D01*
X115499184Y-80710961D01*
X115499500Y-80719807D01*
X115499500Y-93375500D01*
X115479815Y-93442539D01*
X115427011Y-93488294D01*
X115375500Y-93499500D01*
X87624500Y-93499500D01*
X87557461Y-93479815D01*
X87511706Y-93427011D01*
X87500500Y-93375500D01*
X87500500Y-89381902D01*
X87999500Y-89381902D01*
X87999500Y-89618097D01*
X88036446Y-89851368D01*
X88109433Y-90075996D01*
X88149116Y-90153877D01*
X88216657Y-90286433D01*
X88355483Y-90477510D01*
X88522490Y-90644517D01*
X88713567Y-90783343D01*
X88812991Y-90834002D01*
X88924003Y-90890566D01*
X88924005Y-90890566D01*
X88924008Y-90890568D01*
X89044412Y-90929689D01*
X89148631Y-90963553D01*
X89381903Y-91000500D01*
X89381908Y-91000500D01*
X89618097Y-91000500D01*
X89851368Y-90963553D01*
X90075992Y-90890568D01*
X90286433Y-90783343D01*
X90477510Y-90644517D01*
X90644517Y-90477510D01*
X90783343Y-90286433D01*
X90890568Y-90075992D01*
X90963553Y-89851368D01*
X90986561Y-89706102D01*
X91000500Y-89618097D01*
X91000500Y-89381902D01*
X90963553Y-89148631D01*
X90915259Y-88999999D01*
X90890568Y-88924008D01*
X90890566Y-88924005D01*
X90890566Y-88924003D01*
X90804145Y-88754394D01*
X90783343Y-88713567D01*
X90644517Y-88522490D01*
X90477510Y-88355483D01*
X90286433Y-88216657D01*
X90075996Y-88109433D01*
X89851368Y-88036446D01*
X89618097Y-87999500D01*
X89618092Y-87999500D01*
X89381908Y-87999500D01*
X89381903Y-87999500D01*
X89148631Y-88036446D01*
X88924003Y-88109433D01*
X88713566Y-88216657D01*
X88634535Y-88274077D01*
X88522490Y-88355483D01*
X88522488Y-88355485D01*
X88522487Y-88355485D01*
X88355485Y-88522487D01*
X88355485Y-88522488D01*
X88355483Y-88522490D01*
X88299169Y-88600000D01*
X88216657Y-88713566D01*
X88109433Y-88924003D01*
X88036446Y-89148631D01*
X87999500Y-89381902D01*
X87500500Y-89381902D01*
X87500500Y-86724500D01*
X87520185Y-86657461D01*
X87572989Y-86611706D01*
X87624500Y-86600500D01*
X87680057Y-86600500D01*
X94763274Y-86600500D01*
X94763290Y-86600501D01*
X94770886Y-86600501D01*
X94928997Y-86600501D01*
X94929000Y-86600501D01*
X95081728Y-86559577D01*
X95131847Y-86530639D01*
X95218659Y-86480520D01*
X95330463Y-86368716D01*
X95330463Y-86368714D01*
X95340671Y-86358507D01*
X95340672Y-86358504D01*
X95788820Y-85910357D01*
X95850142Y-85876873D01*
X95919834Y-85881857D01*
X95975767Y-85923729D01*
X96000184Y-85989193D01*
X96000500Y-85998039D01*
X96000500Y-87098903D01*
X95980815Y-87165942D01*
X95964181Y-87186584D01*
X94724077Y-88426688D01*
X94662754Y-88460173D01*
X94593062Y-88455189D01*
X94548715Y-88426688D01*
X94477512Y-88355485D01*
X94477510Y-88355483D01*
X94286433Y-88216657D01*
X94075996Y-88109433D01*
X93851368Y-88036446D01*
X93618097Y-87999500D01*
X93618092Y-87999500D01*
X93381908Y-87999500D01*
X93381903Y-87999500D01*
X93148631Y-88036446D01*
X92924003Y-88109433D01*
X92713566Y-88216657D01*
X92634535Y-88274077D01*
X92522490Y-88355483D01*
X92522488Y-88355485D01*
X92522487Y-88355485D01*
X92355485Y-88522487D01*
X92355485Y-88522488D01*
X92355483Y-88522490D01*
X92299169Y-88600000D01*
X92216657Y-88713566D01*
X92109433Y-88924003D01*
X92036446Y-89148631D01*
X91999500Y-89381902D01*
X91999500Y-89618097D01*
X92036446Y-89851368D01*
X92109433Y-90075996D01*
X92149116Y-90153877D01*
X92216657Y-90286433D01*
X92355483Y-90477510D01*
X92522490Y-90644517D01*
X92713567Y-90783343D01*
X92812991Y-90834002D01*
X92924003Y-90890566D01*
X92924005Y-90890566D01*
X92924008Y-90890568D01*
X93044412Y-90929689D01*
X93148631Y-90963553D01*
X93381903Y-91000500D01*
X93381908Y-91000500D01*
X93618097Y-91000500D01*
X93851368Y-90963553D01*
X94075992Y-90890568D01*
X94286433Y-90783343D01*
X94477510Y-90644517D01*
X94644517Y-90477510D01*
X94783343Y-90286433D01*
X94890568Y-90075992D01*
X94937836Y-89930511D01*
X94944821Y-89919113D01*
X94946932Y-89909408D01*
X94968075Y-89881164D01*
X94968080Y-89881154D01*
X94980520Y-89868716D01*
X94980521Y-89868713D01*
X96412322Y-88436912D01*
X96473641Y-88403430D01*
X96543333Y-88408414D01*
X96587680Y-88436915D01*
X97515139Y-89364374D01*
X97515149Y-89364385D01*
X97519479Y-89368715D01*
X97519480Y-89368716D01*
X97631284Y-89480520D01*
X97631286Y-89480521D01*
X97631290Y-89480524D01*
X97663346Y-89499031D01*
X97768216Y-89559577D01*
X97880019Y-89589534D01*
X97920942Y-89600500D01*
X97920943Y-89600500D01*
X108382725Y-89600500D01*
X108449764Y-89620185D01*
X108495519Y-89672989D01*
X108503977Y-89698541D01*
X108504887Y-89702792D01*
X108554121Y-89851368D01*
X108560074Y-89869334D01*
X108652176Y-90018656D01*
X108776232Y-90142712D01*
X108925554Y-90234814D01*
X109092091Y-90289999D01*
X109194879Y-90300500D01*
X109231949Y-90300499D01*
X109298986Y-90320182D01*
X109344742Y-90372985D01*
X109354687Y-90442143D01*
X109325664Y-90505699D01*
X109319630Y-90512180D01*
X107968632Y-91863181D01*
X107907309Y-91896666D01*
X107880951Y-91899500D01*
X98897956Y-91899500D01*
X98830917Y-91879815D01*
X98785162Y-91827011D01*
X98776339Y-91799691D01*
X98769738Y-91766510D01*
X98769737Y-91766503D01*
X98769735Y-91766498D01*
X98709397Y-91620827D01*
X98709390Y-91620814D01*
X98621789Y-91489711D01*
X98621786Y-91489707D01*
X98510292Y-91378213D01*
X98510288Y-91378210D01*
X98379185Y-91290609D01*
X98379172Y-91290602D01*
X98233501Y-91230264D01*
X98233489Y-91230261D01*
X98078845Y-91199500D01*
X98078842Y-91199500D01*
X97921158Y-91199500D01*
X97921155Y-91199500D01*
X97766510Y-91230261D01*
X97766498Y-91230264D01*
X97620827Y-91290602D01*
X97620814Y-91290609D01*
X97489711Y-91378210D01*
X97489707Y-91378213D01*
X97378213Y-91489707D01*
X97378210Y-91489711D01*
X97290609Y-91620814D01*
X97290602Y-91620827D01*
X97230264Y-91766498D01*
X97230261Y-91766510D01*
X97199500Y-91921153D01*
X97199500Y-92078846D01*
X97230261Y-92233489D01*
X97230264Y-92233501D01*
X97290602Y-92379172D01*
X97290609Y-92379185D01*
X97378210Y-92510288D01*
X97378213Y-92510292D01*
X97489707Y-92621786D01*
X97489711Y-92621789D01*
X97620814Y-92709390D01*
X97620827Y-92709397D01*
X97766498Y-92769735D01*
X97766503Y-92769737D01*
X97921158Y-92800500D01*
X97921847Y-92800637D01*
X97983758Y-92833022D01*
X97985337Y-92834573D01*
X98131284Y-92980520D01*
X98131286Y-92980521D01*
X98131290Y-92980524D01*
X98268209Y-93059573D01*
X98268216Y-93059577D01*
X98420943Y-93100501D01*
X98420945Y-93100501D01*
X98586654Y-93100501D01*
X98586670Y-93100500D01*
X108094379Y-93100500D01*
X108094395Y-93100501D01*
X108101991Y-93100501D01*
X108260102Y-93100501D01*
X108260105Y-93100501D01*
X108412833Y-93059577D01*
X108462952Y-93030639D01*
X108549764Y-92980520D01*
X108661568Y-92868716D01*
X108661568Y-92868714D01*
X108671776Y-92858507D01*
X108671777Y-92858504D01*
X111376408Y-90153876D01*
X111394713Y-90122169D01*
X111445279Y-90073954D01*
X111513886Y-90060729D01*
X111574987Y-90083850D01*
X111613538Y-90111859D01*
X111795856Y-90204755D01*
X111990470Y-90267990D01*
X112192571Y-90300000D01*
X112397205Y-90300000D01*
X112599305Y-90267990D01*
X112793919Y-90204755D01*
X112976237Y-90111859D01*
X113020809Y-90079474D01*
X112341335Y-89400000D01*
X112347549Y-89400000D01*
X112449282Y-89372741D01*
X112540494Y-89320080D01*
X112614968Y-89245606D01*
X112667629Y-89154394D01*
X112694888Y-89052661D01*
X112694888Y-89046447D01*
X113374362Y-89725921D01*
X113406747Y-89681349D01*
X113499643Y-89499031D01*
X113562878Y-89304417D01*
X113594888Y-89102317D01*
X113594888Y-88897682D01*
X113562878Y-88695582D01*
X113499643Y-88500968D01*
X113406747Y-88318650D01*
X113374362Y-88274077D01*
X113374362Y-88274076D01*
X112694888Y-88953551D01*
X112694888Y-88947339D01*
X112667629Y-88845606D01*
X112614968Y-88754394D01*
X112540494Y-88679920D01*
X112449282Y-88627259D01*
X112347549Y-88600000D01*
X112341334Y-88600000D01*
X113020810Y-87920524D01*
X113020809Y-87920523D01*
X112976247Y-87888147D01*
X112976238Y-87888141D01*
X112793919Y-87795244D01*
X112599305Y-87732009D01*
X112397205Y-87700000D01*
X112192571Y-87700000D01*
X111990470Y-87732009D01*
X111795856Y-87795244D01*
X111613537Y-87888141D01*
X111613530Y-87888145D01*
X111574985Y-87916150D01*
X111509179Y-87939629D01*
X111441125Y-87923803D01*
X111409397Y-87898184D01*
X111401020Y-87888755D01*
X111376408Y-87846124D01*
X111264604Y-87734320D01*
X111264601Y-87734318D01*
X108978638Y-85448355D01*
X108978636Y-85448352D01*
X108859765Y-85329481D01*
X108859764Y-85329480D01*
X108772952Y-85279360D01*
X108772952Y-85279359D01*
X108772948Y-85279358D01*
X108722833Y-85250423D01*
X108570105Y-85209499D01*
X108411991Y-85209499D01*
X108404395Y-85209499D01*
X108404379Y-85209500D01*
X107044602Y-85209500D01*
X106977563Y-85189815D01*
X106934117Y-85141795D01*
X106927284Y-85128385D01*
X106806971Y-84962786D01*
X106662213Y-84818028D01*
X106496614Y-84697715D01*
X106463709Y-84680949D01*
X106403917Y-84650483D01*
X106353123Y-84602511D01*
X106336328Y-84534690D01*
X106358865Y-84468555D01*
X106403917Y-84429516D01*
X106496610Y-84382287D01*
X106565810Y-84332011D01*
X106662213Y-84261971D01*
X106662215Y-84261968D01*
X106662219Y-84261966D01*
X106806966Y-84117219D01*
X106806968Y-84117215D01*
X106806971Y-84117213D01*
X106869187Y-84031578D01*
X106927287Y-83951610D01*
X107020220Y-83769219D01*
X107083477Y-83574534D01*
X107115500Y-83372352D01*
X107115500Y-83167648D01*
X107083477Y-82965466D01*
X107020220Y-82770781D01*
X107020218Y-82770778D01*
X107020218Y-82770776D01*
X106983900Y-82699500D01*
X106927287Y-82588390D01*
X106901329Y-82552661D01*
X106806971Y-82422786D01*
X106662213Y-82278028D01*
X106496614Y-82157715D01*
X106463709Y-82140949D01*
X106403917Y-82110483D01*
X106353123Y-82062511D01*
X106336328Y-81994690D01*
X106358865Y-81928555D01*
X106403917Y-81889516D01*
X106496610Y-81842287D01*
X106533570Y-81815434D01*
X106662213Y-81721971D01*
X106662215Y-81721968D01*
X106662219Y-81721966D01*
X106806966Y-81577219D01*
X106806968Y-81577215D01*
X106806971Y-81577213D01*
X106893588Y-81457993D01*
X106927287Y-81411610D01*
X107020220Y-81229219D01*
X107083477Y-81034534D01*
X107115500Y-80832352D01*
X107115500Y-80627648D01*
X107083477Y-80425466D01*
X107020220Y-80230781D01*
X107020218Y-80230778D01*
X107020218Y-80230776D01*
X106986503Y-80164607D01*
X106927287Y-80048390D01*
X106905784Y-80018793D01*
X106806971Y-79882786D01*
X106662213Y-79738028D01*
X106496614Y-79617715D01*
X106489884Y-79614286D01*
X106403917Y-79570483D01*
X106353123Y-79522511D01*
X106336328Y-79454690D01*
X106358865Y-79388555D01*
X106403917Y-79349516D01*
X106496610Y-79302287D01*
X106517770Y-79286913D01*
X106662213Y-79181971D01*
X106662215Y-79181968D01*
X106662219Y-79181966D01*
X106806966Y-79037219D01*
X106806968Y-79037215D01*
X106806971Y-79037213D01*
X106859732Y-78964590D01*
X106927287Y-78871610D01*
X107020220Y-78689219D01*
X107083477Y-78494534D01*
X107115500Y-78292352D01*
X107115500Y-78087648D01*
X107093821Y-77950776D01*
X107083477Y-77885465D01*
X107045153Y-77767516D01*
X107020220Y-77690781D01*
X107020218Y-77690778D01*
X107020218Y-77690776D01*
X106975382Y-77602781D01*
X106927287Y-77508390D01*
X106890702Y-77458034D01*
X106806971Y-77342786D01*
X106662213Y-77198028D01*
X106496613Y-77077715D01*
X106496612Y-77077714D01*
X106496610Y-77077713D01*
X106437675Y-77047684D01*
X106314223Y-76984781D01*
X106119534Y-76921522D01*
X105944995Y-76893878D01*
X105917352Y-76889500D01*
X105712648Y-76889500D01*
X105688329Y-76893351D01*
X105510465Y-76921522D01*
X105315776Y-76984781D01*
X105133386Y-77077715D01*
X104967786Y-77198028D01*
X104823028Y-77342786D01*
X104702715Y-77508386D01*
X104609781Y-77690776D01*
X104546522Y-77885465D01*
X104520463Y-78050000D01*
X104514500Y-78087648D01*
X104514500Y-78292352D01*
X104518246Y-78316000D01*
X104546522Y-78494534D01*
X104609781Y-78689223D01*
X104702715Y-78871613D01*
X104823028Y-79037213D01*
X104967786Y-79181971D01*
X105122749Y-79294556D01*
X105133390Y-79302287D01*
X105224840Y-79348883D01*
X105226080Y-79349515D01*
X105276876Y-79397490D01*
X105293671Y-79465311D01*
X105271134Y-79531446D01*
X105226080Y-79570485D01*
X105133386Y-79617715D01*
X104967786Y-79738028D01*
X104823028Y-79882786D01*
X104702715Y-80048386D01*
X104609781Y-80230776D01*
X104546522Y-80425465D01*
X104514500Y-80627648D01*
X104514500Y-80820903D01*
X104494815Y-80887942D01*
X104442011Y-80933697D01*
X104372853Y-80943641D01*
X104309297Y-80914616D01*
X104302819Y-80908584D01*
X103762590Y-80368355D01*
X103762588Y-80368352D01*
X103643717Y-80249481D01*
X103643716Y-80249480D01*
X103556904Y-80199360D01*
X103556904Y-80199359D01*
X103556900Y-80199358D01*
X103506785Y-80170423D01*
X103354057Y-80129499D01*
X103195943Y-80129499D01*
X103188347Y-80129499D01*
X103188331Y-80129500D01*
X99424602Y-80129500D01*
X99357563Y-80109815D01*
X99314117Y-80061795D01*
X99307284Y-80048385D01*
X99186971Y-79882786D01*
X99042217Y-79738032D01*
X99042212Y-79738028D01*
X98948051Y-79669616D01*
X98905385Y-79614286D01*
X98899406Y-79544673D01*
X98932012Y-79482878D01*
X98981933Y-79451592D01*
X99064117Y-79424359D01*
X99064124Y-79424356D01*
X99213345Y-79332315D01*
X99337315Y-79208345D01*
X99429356Y-79059124D01*
X99429358Y-79059119D01*
X99484505Y-78892697D01*
X99484506Y-78892690D01*
X99494999Y-78789986D01*
X99495000Y-78789973D01*
X99495000Y-78440000D01*
X98510686Y-78440000D01*
X98515080Y-78435606D01*
X98567741Y-78344394D01*
X98595000Y-78242661D01*
X98595000Y-78137339D01*
X98567741Y-78035606D01*
X98515080Y-77944394D01*
X98510686Y-77940000D01*
X99494999Y-77940000D01*
X99494999Y-77590028D01*
X99494998Y-77590013D01*
X99484505Y-77487302D01*
X99429358Y-77320880D01*
X99429356Y-77320875D01*
X99337315Y-77171654D01*
X99213345Y-77047684D01*
X99064124Y-76955643D01*
X99064119Y-76955641D01*
X98897697Y-76900494D01*
X98897690Y-76900493D01*
X98794986Y-76890000D01*
X98445000Y-76890000D01*
X98445000Y-77874314D01*
X98440606Y-77869920D01*
X98349394Y-77817259D01*
X98247661Y-77790000D01*
X98142339Y-77790000D01*
X98040606Y-77817259D01*
X97949394Y-77869920D01*
X97945000Y-77874314D01*
X97945000Y-76901479D01*
X97929343Y-76890000D01*
X97595028Y-76890000D01*
X97595012Y-76890001D01*
X97492302Y-76900494D01*
X97364504Y-76942842D01*
X97294675Y-76945244D01*
X97234633Y-76909512D01*
X97203441Y-76846991D01*
X97201500Y-76825136D01*
X97201500Y-76724500D01*
X97221185Y-76657461D01*
X97273989Y-76611706D01*
X97325500Y-76600500D01*
X97913331Y-76600500D01*
X97913347Y-76600501D01*
X97920943Y-76600501D01*
X98079054Y-76600501D01*
X98079057Y-76600501D01*
X98231785Y-76559577D01*
X98281904Y-76530639D01*
X98368716Y-76480520D01*
X98480520Y-76368716D01*
X98480520Y-76368714D01*
X98490728Y-76358507D01*
X98490729Y-76358504D01*
X99065497Y-75783736D01*
X99126817Y-75750254D01*
X99196509Y-75755238D01*
G37*
%TD.AperFunction*%
%TA.AperFunction,Conductor*%
G36*
X98285000Y-73154787D02*
G01*
X98300206Y-73154136D01*
X98317843Y-73164431D01*
X98337437Y-73170185D01*
X98348335Y-73182230D01*
X98360547Y-73189359D01*
X98380882Y-73218203D01*
X98383320Y-73222989D01*
X98387715Y-73231614D01*
X98508028Y-73397213D01*
X98652786Y-73541971D01*
X98805327Y-73652796D01*
X98818390Y-73662287D01*
X99000781Y-73755220D01*
X99104497Y-73788919D01*
X99106287Y-73789501D01*
X99163963Y-73828939D01*
X99191161Y-73893297D01*
X99179246Y-73962144D01*
X99155650Y-73995113D01*
X97787584Y-75363181D01*
X97726261Y-75396666D01*
X97699903Y-75399500D01*
X96586669Y-75399500D01*
X96586653Y-75399499D01*
X96579057Y-75399499D01*
X96420943Y-75399499D01*
X96313587Y-75428265D01*
X96268210Y-75440424D01*
X96268209Y-75440425D01*
X96218096Y-75469359D01*
X96218095Y-75469360D01*
X96174689Y-75494420D01*
X96131285Y-75519479D01*
X96131282Y-75519481D01*
X96019481Y-75631282D01*
X96019479Y-75631285D01*
X95969361Y-75718094D01*
X95969359Y-75718096D01*
X95940425Y-75768209D01*
X95940424Y-75768210D01*
X95940423Y-75768215D01*
X95899499Y-75920943D01*
X95899499Y-75920945D01*
X95899499Y-76079054D01*
X95899498Y-76079054D01*
X95940422Y-76231783D01*
X95962333Y-76269735D01*
X95962335Y-76269737D01*
X95980095Y-76300499D01*
X95983887Y-76307066D01*
X96000500Y-76369066D01*
X96000500Y-78078268D01*
X95980815Y-78145307D01*
X95928011Y-78191062D01*
X95858853Y-78201006D01*
X95795297Y-78171981D01*
X95758569Y-78116587D01*
X95704755Y-77950968D01*
X95611859Y-77768650D01*
X95579474Y-77724077D01*
X95579474Y-77724076D01*
X94900000Y-78403551D01*
X94900000Y-78397339D01*
X94872741Y-78295606D01*
X94820080Y-78204394D01*
X94745606Y-78129920D01*
X94654394Y-78077259D01*
X94552661Y-78050000D01*
X94546446Y-78050000D01*
X95225922Y-77370524D01*
X95225921Y-77370523D01*
X95181359Y-77338147D01*
X95181350Y-77338141D01*
X94999031Y-77245244D01*
X94804417Y-77182009D01*
X94602317Y-77150000D01*
X94397683Y-77150000D01*
X94195582Y-77182009D01*
X94000968Y-77245244D01*
X93818644Y-77338143D01*
X93774077Y-77370523D01*
X93774077Y-77370524D01*
X94453554Y-78050000D01*
X94447339Y-78050000D01*
X94345606Y-78077259D01*
X94254394Y-78129920D01*
X94179920Y-78204394D01*
X94127259Y-78295606D01*
X94100000Y-78397339D01*
X94100000Y-78403553D01*
X93420524Y-77724077D01*
X93420523Y-77724077D01*
X93388143Y-77768644D01*
X93295244Y-77950968D01*
X93232009Y-78145582D01*
X93200000Y-78347682D01*
X93200000Y-78552317D01*
X93232009Y-78754417D01*
X93295244Y-78949031D01*
X93388141Y-79131350D01*
X93388147Y-79131359D01*
X93420523Y-79175921D01*
X93420524Y-79175922D01*
X94100000Y-78496446D01*
X94100000Y-78502661D01*
X94127259Y-78604394D01*
X94179920Y-78695606D01*
X94254394Y-78770080D01*
X94345606Y-78822741D01*
X94447339Y-78850000D01*
X94453553Y-78850000D01*
X93774076Y-79529474D01*
X93818650Y-79561859D01*
X94000968Y-79654755D01*
X94195582Y-79717990D01*
X94397683Y-79750000D01*
X94602317Y-79750000D01*
X94804417Y-79717990D01*
X94999031Y-79654755D01*
X95181349Y-79561859D01*
X95225921Y-79529474D01*
X94546447Y-78850000D01*
X94552661Y-78850000D01*
X94654394Y-78822741D01*
X94745606Y-78770080D01*
X94820080Y-78695606D01*
X94872741Y-78604394D01*
X94900000Y-78502661D01*
X94900000Y-78496447D01*
X95579474Y-79175921D01*
X95611859Y-79131349D01*
X95704755Y-78949031D01*
X95758569Y-78783412D01*
X95798007Y-78725737D01*
X95862366Y-78698539D01*
X95931212Y-78710454D01*
X95982688Y-78757698D01*
X96000500Y-78821731D01*
X96000500Y-82126652D01*
X95980815Y-82193691D01*
X95928011Y-82239446D01*
X95858853Y-82249390D01*
X95795297Y-82220365D01*
X95758569Y-82164971D01*
X95728180Y-82071446D01*
X95705220Y-82000781D01*
X95705218Y-82000778D01*
X95705218Y-82000776D01*
X95633004Y-81859050D01*
X95612287Y-81818390D01*
X95586451Y-81782829D01*
X95491971Y-81652786D01*
X95347213Y-81508028D01*
X95181613Y-81387715D01*
X95181612Y-81387714D01*
X95181610Y-81387713D01*
X95124653Y-81358691D01*
X94999223Y-81294781D01*
X94804534Y-81231522D01*
X94629995Y-81203878D01*
X94602352Y-81199500D01*
X94397648Y-81199500D01*
X94373329Y-81203351D01*
X94195465Y-81231522D01*
X94000776Y-81294781D01*
X93818386Y-81387715D01*
X93652786Y-81508028D01*
X93508028Y-81652786D01*
X93387715Y-81818386D01*
X93294781Y-82000776D01*
X93231522Y-82195465D01*
X93199500Y-82397648D01*
X93199500Y-82602351D01*
X93231522Y-82804534D01*
X93294781Y-82999223D01*
X93387715Y-83181613D01*
X93508028Y-83347213D01*
X93508034Y-83347219D01*
X93652781Y-83491966D01*
X93818390Y-83612287D01*
X93831793Y-83619116D01*
X93882589Y-83667088D01*
X93899500Y-83729601D01*
X93899500Y-84413330D01*
X93899499Y-84413348D01*
X93899499Y-84579054D01*
X93899498Y-84579054D01*
X93908178Y-84611446D01*
X93940423Y-84731785D01*
X93960468Y-84766503D01*
X93973411Y-84788921D01*
X94019479Y-84868715D01*
X94131284Y-84980520D01*
X94165425Y-85014660D01*
X94198911Y-85075983D01*
X94199362Y-85078151D01*
X94230261Y-85233491D01*
X94232031Y-85239324D01*
X94229279Y-85240158D01*
X94235503Y-85297359D01*
X94204309Y-85359878D01*
X94144266Y-85395608D01*
X94113445Y-85399500D01*
X88325500Y-85399500D01*
X88258461Y-85379815D01*
X88212706Y-85327011D01*
X88201500Y-85275500D01*
X88201500Y-83306094D01*
X88221185Y-83239055D01*
X88273989Y-83193300D01*
X88343147Y-83183356D01*
X88406703Y-83212381D01*
X88419021Y-83225803D01*
X88420524Y-83225922D01*
X89100000Y-82546446D01*
X89100000Y-82552661D01*
X89127259Y-82654394D01*
X89179920Y-82745606D01*
X89254394Y-82820080D01*
X89345606Y-82872741D01*
X89447339Y-82900000D01*
X89453553Y-82900000D01*
X88774076Y-83579474D01*
X88818650Y-83611859D01*
X89000968Y-83704755D01*
X89195582Y-83767990D01*
X89397683Y-83800000D01*
X89602317Y-83800000D01*
X89804417Y-83767990D01*
X89999031Y-83704755D01*
X90181349Y-83611859D01*
X90225921Y-83579474D01*
X89546447Y-82900000D01*
X89552661Y-82900000D01*
X89654394Y-82872741D01*
X89745606Y-82820080D01*
X89820080Y-82745606D01*
X89872741Y-82654394D01*
X89900000Y-82552661D01*
X89900000Y-82546447D01*
X90579474Y-83225921D01*
X90611859Y-83181349D01*
X90704755Y-82999031D01*
X90767990Y-82804417D01*
X90800000Y-82602317D01*
X90800000Y-82397682D01*
X90767990Y-82195582D01*
X90704755Y-82000968D01*
X90611859Y-81818650D01*
X90579474Y-81774077D01*
X90579474Y-81774076D01*
X89900000Y-82453551D01*
X89900000Y-82447339D01*
X89872741Y-82345606D01*
X89820080Y-82254394D01*
X89745606Y-82179920D01*
X89654394Y-82127259D01*
X89552661Y-82100000D01*
X89546446Y-82100000D01*
X90225922Y-81420524D01*
X90225921Y-81420523D01*
X90181359Y-81388147D01*
X90181350Y-81388141D01*
X89999031Y-81295244D01*
X89804417Y-81232009D01*
X89602317Y-81200000D01*
X89397683Y-81200000D01*
X89195582Y-81232009D01*
X89000968Y-81295244D01*
X88818644Y-81388143D01*
X88774077Y-81420523D01*
X88774077Y-81420524D01*
X89453554Y-82100000D01*
X89447339Y-82100000D01*
X89345606Y-82127259D01*
X89254394Y-82179920D01*
X89179920Y-82254394D01*
X89127259Y-82345606D01*
X89100000Y-82447339D01*
X89100000Y-82453553D01*
X88420524Y-81774077D01*
X88415894Y-81774441D01*
X88400832Y-81786056D01*
X88377011Y-81806698D01*
X88373388Y-81807218D01*
X88370489Y-81809455D01*
X88339067Y-81812153D01*
X88307853Y-81816642D01*
X88304522Y-81815120D01*
X88300876Y-81815434D01*
X88272989Y-81800720D01*
X88244297Y-81787617D01*
X88242317Y-81784537D01*
X88239080Y-81782829D01*
X88223573Y-81755370D01*
X88206523Y-81728839D01*
X88205816Y-81723926D01*
X88204723Y-81721990D01*
X88201500Y-81693904D01*
X88201500Y-80275501D01*
X88221185Y-80208462D01*
X88273989Y-80162707D01*
X88325500Y-80151501D01*
X88478054Y-80151501D01*
X88478057Y-80151501D01*
X88630785Y-80110577D01*
X88680904Y-80081639D01*
X88767716Y-80031520D01*
X88879520Y-79919716D01*
X88879520Y-79919714D01*
X88889728Y-79909507D01*
X88889730Y-79909504D01*
X89055158Y-79744075D01*
X89116479Y-79710592D01*
X89181151Y-79713825D01*
X89195466Y-79718477D01*
X89397648Y-79750500D01*
X89397649Y-79750500D01*
X89602351Y-79750500D01*
X89602352Y-79750500D01*
X89804534Y-79718477D01*
X89999219Y-79655220D01*
X90181610Y-79562287D01*
X90290908Y-79482878D01*
X90347213Y-79441971D01*
X90347215Y-79441968D01*
X90347219Y-79441966D01*
X90491966Y-79297219D01*
X90491968Y-79297215D01*
X90491971Y-79297213D01*
X90575698Y-79181971D01*
X90612287Y-79131610D01*
X90619910Y-79116648D01*
X90667878Y-79065854D01*
X90702915Y-79053870D01*
X90702576Y-79052604D01*
X90710424Y-79050501D01*
X90710427Y-79050501D01*
X90863155Y-79009577D01*
X90913274Y-78980639D01*
X91000086Y-78930520D01*
X91111890Y-78818716D01*
X91111890Y-78818714D01*
X91122098Y-78808507D01*
X91122099Y-78808504D01*
X96743786Y-73186819D01*
X96805109Y-73153334D01*
X96831467Y-73150500D01*
X98270398Y-73150500D01*
X98285000Y-73154787D01*
G37*
%TD.AperFunction*%
%TA.AperFunction,Conductor*%
G36*
X91187231Y-65520185D02*
G01*
X91232986Y-65572989D01*
X91242930Y-65642147D01*
X91213905Y-65705703D01*
X91207873Y-65712181D01*
X89727190Y-67192862D01*
X89665867Y-67226347D01*
X89620111Y-67227654D01*
X89474611Y-67204609D01*
X89442352Y-67199500D01*
X89237648Y-67199500D01*
X89213329Y-67203351D01*
X89035465Y-67231522D01*
X88840776Y-67294781D01*
X88658386Y-67387715D01*
X88492786Y-67508028D01*
X88348028Y-67652786D01*
X88227715Y-67818386D01*
X88134781Y-68000776D01*
X88071522Y-68195465D01*
X88039500Y-68397648D01*
X88039500Y-68602351D01*
X88071522Y-68804534D01*
X88134781Y-68999223D01*
X88196565Y-69120478D01*
X88227585Y-69181359D01*
X88227715Y-69181613D01*
X88348028Y-69347213D01*
X88492786Y-69491971D01*
X88613226Y-69579474D01*
X88658390Y-69612287D01*
X88774607Y-69671503D01*
X88840776Y-69705218D01*
X88840778Y-69705218D01*
X88840781Y-69705220D01*
X88945137Y-69739127D01*
X89035465Y-69768477D01*
X89136557Y-69784488D01*
X89237648Y-69800500D01*
X89237649Y-69800500D01*
X89442351Y-69800500D01*
X89442352Y-69800500D01*
X89644534Y-69768477D01*
X89839219Y-69705220D01*
X90021610Y-69612287D01*
X90145959Y-69521943D01*
X90187213Y-69491971D01*
X90187215Y-69491968D01*
X90187219Y-69491966D01*
X90331966Y-69347219D01*
X90331968Y-69347215D01*
X90331971Y-69347213D01*
X90415472Y-69232282D01*
X90452287Y-69181610D01*
X90545220Y-68999219D01*
X90608477Y-68804534D01*
X90640500Y-68602352D01*
X90640500Y-68397648D01*
X90632257Y-68345606D01*
X90612345Y-68219886D01*
X90621300Y-68150593D01*
X90647134Y-68112810D01*
X92422127Y-66337819D01*
X92483450Y-66304334D01*
X92509808Y-66301500D01*
X113830192Y-66301500D01*
X113897231Y-66321185D01*
X113917873Y-66337819D01*
X114662181Y-67082127D01*
X114695666Y-67143450D01*
X114698500Y-67169808D01*
X114698500Y-71583362D01*
X114678815Y-71650401D01*
X114626011Y-71696156D01*
X114603397Y-71700153D01*
X113823787Y-72479764D01*
X113812518Y-72437708D01*
X113740110Y-72312292D01*
X113637708Y-72209890D01*
X113512292Y-72137482D01*
X113470232Y-72126212D01*
X114240698Y-71355748D01*
X114138583Y-71281557D01*
X113914184Y-71167219D01*
X113674669Y-71089397D01*
X113425928Y-71050000D01*
X113174072Y-71050000D01*
X112925330Y-71089397D01*
X112685815Y-71167219D01*
X112461413Y-71281559D01*
X112359301Y-71355747D01*
X112359300Y-71355748D01*
X113129765Y-72126212D01*
X113087708Y-72137482D01*
X112962292Y-72209890D01*
X112859890Y-72312292D01*
X112787482Y-72437708D01*
X112776212Y-72479765D01*
X112005748Y-71709300D01*
X112005747Y-71709301D01*
X111931559Y-71811413D01*
X111817219Y-72035815D01*
X111739397Y-72275330D01*
X111700000Y-72524071D01*
X111700000Y-72775928D01*
X111739397Y-73024669D01*
X111817219Y-73264184D01*
X111931557Y-73488583D01*
X112005748Y-73590697D01*
X112005748Y-73590698D01*
X112776212Y-72820234D01*
X112787482Y-72862292D01*
X112859890Y-72987708D01*
X112962292Y-73090110D01*
X113087708Y-73162518D01*
X113129765Y-73173787D01*
X112359300Y-73944250D01*
X112461416Y-74018442D01*
X112685815Y-74132780D01*
X112925330Y-74210602D01*
X113174072Y-74250000D01*
X113425928Y-74250000D01*
X113674669Y-74210602D01*
X113914184Y-74132780D01*
X114138575Y-74018446D01*
X114138581Y-74018442D01*
X114240697Y-73944250D01*
X114240698Y-73944250D01*
X113470234Y-73173787D01*
X113512292Y-73162518D01*
X113637708Y-73090110D01*
X113740110Y-72987708D01*
X113812518Y-72862292D01*
X113823787Y-72820235D01*
X114605026Y-73601474D01*
X114633148Y-73607382D01*
X114682905Y-73656434D01*
X114698500Y-73716636D01*
X114698500Y-74771981D01*
X114678815Y-74839020D01*
X114626011Y-74884775D01*
X114556853Y-74894719D01*
X114505609Y-74875083D01*
X114379185Y-74790609D01*
X114379172Y-74790602D01*
X114233501Y-74730264D01*
X114233489Y-74730261D01*
X114078845Y-74699500D01*
X114078842Y-74699500D01*
X113921158Y-74699500D01*
X113921155Y-74699500D01*
X113766510Y-74730261D01*
X113766498Y-74730264D01*
X113620827Y-74790602D01*
X113620814Y-74790609D01*
X113489125Y-74878602D01*
X113422447Y-74899480D01*
X113420234Y-74899500D01*
X100579766Y-74899500D01*
X100563986Y-74895210D01*
X100549653Y-74895788D01*
X100523536Y-74884213D01*
X100516984Y-74882432D01*
X100510991Y-74878913D01*
X100510289Y-74878211D01*
X100379179Y-74790606D01*
X100316044Y-74764455D01*
X100308639Y-74760107D01*
X100290354Y-74740648D01*
X100269564Y-74723894D01*
X100266796Y-74715577D01*
X100260793Y-74709189D01*
X100255931Y-74682933D01*
X100247500Y-74657600D01*
X100249667Y-74649106D01*
X100248072Y-74640487D01*
X100258176Y-74615772D01*
X100264780Y-74589901D01*
X100273168Y-74579102D01*
X100274513Y-74575814D01*
X100277170Y-74573950D01*
X100283736Y-74565498D01*
X101332712Y-73516522D01*
X101394033Y-73483039D01*
X101463725Y-73488023D01*
X101519658Y-73529895D01*
X101543749Y-73591602D01*
X101550000Y-73652796D01*
X101550001Y-73652798D01*
X101605186Y-73819335D01*
X101697288Y-73968656D01*
X101821344Y-74092712D01*
X101970665Y-74184814D01*
X102137202Y-74239999D01*
X102239990Y-74250500D01*
X102239995Y-74250500D01*
X104040005Y-74250500D01*
X104040010Y-74250500D01*
X104142798Y-74239999D01*
X104309335Y-74184814D01*
X104458656Y-74092712D01*
X104582712Y-73968656D01*
X104674814Y-73819335D01*
X104729999Y-73652798D01*
X104740500Y-73550010D01*
X104740500Y-71749990D01*
X104729999Y-71647202D01*
X104674814Y-71480665D01*
X104582712Y-71331344D01*
X104458656Y-71207288D01*
X104309335Y-71115186D01*
X104142798Y-71060001D01*
X104142796Y-71060000D01*
X104040017Y-71049500D01*
X104040010Y-71049500D01*
X102463500Y-71049500D01*
X102396461Y-71029815D01*
X102350706Y-70977011D01*
X102339500Y-70925500D01*
X102339500Y-69901097D01*
X102348144Y-69871656D01*
X102354668Y-69841670D01*
X102358422Y-69836654D01*
X102359185Y-69834058D01*
X102375819Y-69813416D01*
X102395158Y-69794077D01*
X102456481Y-69760592D01*
X102521157Y-69763827D01*
X102535466Y-69768477D01*
X102737648Y-69800500D01*
X102737649Y-69800500D01*
X102942351Y-69800500D01*
X102942352Y-69800500D01*
X103144534Y-69768477D01*
X103339219Y-69705220D01*
X103521610Y-69612287D01*
X103645959Y-69521943D01*
X103687213Y-69491971D01*
X103687215Y-69491968D01*
X103687219Y-69491966D01*
X103831966Y-69347219D01*
X103831968Y-69347215D01*
X103831971Y-69347213D01*
X103915472Y-69232282D01*
X103952287Y-69181610D01*
X104045220Y-68999219D01*
X104108477Y-68804534D01*
X104140500Y-68602352D01*
X104140500Y-68397682D01*
X111700000Y-68397682D01*
X111700000Y-68602317D01*
X111732009Y-68804417D01*
X111795244Y-68999031D01*
X111888141Y-69181350D01*
X111888147Y-69181359D01*
X111920523Y-69225921D01*
X111920524Y-69225922D01*
X112600000Y-68546446D01*
X112600000Y-68552661D01*
X112627259Y-68654394D01*
X112679920Y-68745606D01*
X112754394Y-68820080D01*
X112845606Y-68872741D01*
X112947339Y-68900000D01*
X112953553Y-68900000D01*
X112274076Y-69579474D01*
X112318650Y-69611859D01*
X112500968Y-69704755D01*
X112695582Y-69767990D01*
X112897683Y-69800000D01*
X113102317Y-69800000D01*
X113304417Y-69767990D01*
X113499031Y-69704755D01*
X113681349Y-69611859D01*
X113725921Y-69579474D01*
X113046447Y-68900000D01*
X113052661Y-68900000D01*
X113154394Y-68872741D01*
X113245606Y-68820080D01*
X113320080Y-68745606D01*
X113372741Y-68654394D01*
X113400000Y-68552661D01*
X113400000Y-68546447D01*
X114079474Y-69225921D01*
X114111859Y-69181349D01*
X114204755Y-68999031D01*
X114267990Y-68804417D01*
X114300000Y-68602317D01*
X114300000Y-68397682D01*
X114267990Y-68195582D01*
X114204755Y-68000968D01*
X114111859Y-67818650D01*
X114079474Y-67774077D01*
X114079474Y-67774076D01*
X113400000Y-68453551D01*
X113400000Y-68447339D01*
X113372741Y-68345606D01*
X113320080Y-68254394D01*
X113245606Y-68179920D01*
X113154394Y-68127259D01*
X113052661Y-68100000D01*
X113046446Y-68100000D01*
X113725922Y-67420524D01*
X113725921Y-67420523D01*
X113681359Y-67388147D01*
X113681350Y-67388141D01*
X113499031Y-67295244D01*
X113304417Y-67232009D01*
X113102317Y-67200000D01*
X112897683Y-67200000D01*
X112695582Y-67232009D01*
X112500968Y-67295244D01*
X112318644Y-67388143D01*
X112274077Y-67420523D01*
X112274077Y-67420524D01*
X112953554Y-68100000D01*
X112947339Y-68100000D01*
X112845606Y-68127259D01*
X112754394Y-68179920D01*
X112679920Y-68254394D01*
X112627259Y-68345606D01*
X112600000Y-68447339D01*
X112600000Y-68453553D01*
X111920524Y-67774077D01*
X111920523Y-67774077D01*
X111888143Y-67818644D01*
X111795244Y-68000968D01*
X111732009Y-68195582D01*
X111700000Y-68397682D01*
X104140500Y-68397682D01*
X104140500Y-68397648D01*
X104132257Y-68345606D01*
X104108477Y-68195465D01*
X104077458Y-68100000D01*
X104045220Y-68000781D01*
X104045218Y-68000778D01*
X104045218Y-68000776D01*
X103952419Y-67818650D01*
X103952287Y-67818390D01*
X103920092Y-67774077D01*
X103831971Y-67652786D01*
X103687213Y-67508028D01*
X103521613Y-67387715D01*
X103521612Y-67387714D01*
X103521610Y-67387713D01*
X103464653Y-67358691D01*
X103339223Y-67294781D01*
X103144534Y-67231522D01*
X102969995Y-67203878D01*
X102942352Y-67199500D01*
X102737648Y-67199500D01*
X102713329Y-67203351D01*
X102535465Y-67231522D01*
X102340776Y-67294781D01*
X102158386Y-67387715D01*
X101992786Y-67508028D01*
X101848028Y-67652786D01*
X101727715Y-67818386D01*
X101634781Y-68000776D01*
X101571522Y-68195465D01*
X101539500Y-68397648D01*
X101539500Y-68602351D01*
X101571522Y-68804534D01*
X101576173Y-68818848D01*
X101576606Y-68834059D01*
X101581924Y-68848315D01*
X101577582Y-68868271D01*
X101578165Y-68888690D01*
X101570076Y-68902775D01*
X101567072Y-68916588D01*
X101545921Y-68944842D01*
X101370286Y-69120478D01*
X101258481Y-69232282D01*
X101258475Y-69232290D01*
X101220532Y-69298011D01*
X101220532Y-69298013D01*
X101179423Y-69369214D01*
X101179423Y-69369215D01*
X101138499Y-69521943D01*
X101138499Y-69521945D01*
X101138499Y-69690046D01*
X101138500Y-69690059D01*
X101138500Y-71960901D01*
X101129855Y-71990341D01*
X101123332Y-72020328D01*
X101119577Y-72025343D01*
X101118815Y-72027940D01*
X101102181Y-72048582D01*
X100945113Y-72205650D01*
X100883790Y-72239135D01*
X100814098Y-72234151D01*
X100758165Y-72192279D01*
X100739501Y-72156287D01*
X100721212Y-72100000D01*
X100705220Y-72050781D01*
X100612287Y-71868390D01*
X100592098Y-71840602D01*
X100491971Y-71702786D01*
X100347213Y-71558028D01*
X100181613Y-71437715D01*
X100181612Y-71437714D01*
X100181610Y-71437713D01*
X100124653Y-71408691D01*
X99999223Y-71344781D01*
X99804534Y-71281522D01*
X99629995Y-71253878D01*
X99602352Y-71249500D01*
X99397648Y-71249500D01*
X99373329Y-71253351D01*
X99195465Y-71281522D01*
X99000776Y-71344781D01*
X98818386Y-71437715D01*
X98652786Y-71558028D01*
X98508028Y-71702786D01*
X98387715Y-71868385D01*
X98380883Y-71881795D01*
X98332909Y-71932591D01*
X98270398Y-71949500D01*
X97199097Y-71949500D01*
X97132058Y-71929815D01*
X97086303Y-71877011D01*
X97076359Y-71807853D01*
X97105384Y-71744297D01*
X97111416Y-71737819D01*
X97567713Y-71281522D01*
X99055158Y-69794075D01*
X99116479Y-69760592D01*
X99181151Y-69763825D01*
X99195466Y-69768477D01*
X99397648Y-69800500D01*
X99397649Y-69800500D01*
X99602351Y-69800500D01*
X99602352Y-69800500D01*
X99804534Y-69768477D01*
X99999219Y-69705220D01*
X100181610Y-69612287D01*
X100305959Y-69521943D01*
X100347213Y-69491971D01*
X100347215Y-69491968D01*
X100347219Y-69491966D01*
X100491966Y-69347219D01*
X100491968Y-69347215D01*
X100491971Y-69347213D01*
X100575472Y-69232282D01*
X100612287Y-69181610D01*
X100705220Y-68999219D01*
X100768477Y-68804534D01*
X100800500Y-68602352D01*
X100800500Y-68397648D01*
X100792257Y-68345606D01*
X100768477Y-68195465D01*
X100737458Y-68100000D01*
X100705220Y-68000781D01*
X100705218Y-68000778D01*
X100705218Y-68000776D01*
X100612419Y-67818650D01*
X100612287Y-67818390D01*
X100580092Y-67774077D01*
X100491971Y-67652786D01*
X100347213Y-67508028D01*
X100181613Y-67387715D01*
X100181612Y-67387714D01*
X100181610Y-67387713D01*
X100124653Y-67358691D01*
X99999223Y-67294781D01*
X99804534Y-67231522D01*
X99629995Y-67203878D01*
X99602352Y-67199500D01*
X99397648Y-67199500D01*
X99373329Y-67203351D01*
X99195465Y-67231522D01*
X99000776Y-67294781D01*
X98818386Y-67387715D01*
X98652786Y-67508028D01*
X98508028Y-67652786D01*
X98387715Y-67818386D01*
X98294781Y-68000776D01*
X98231522Y-68195465D01*
X98199500Y-68397648D01*
X98199500Y-68602351D01*
X98231522Y-68804534D01*
X98236173Y-68818848D01*
X98238165Y-68888690D01*
X98205921Y-68944842D01*
X95435339Y-71715425D01*
X95374016Y-71748910D01*
X95371850Y-71749361D01*
X95216508Y-71780261D01*
X95216498Y-71780264D01*
X95070827Y-71840602D01*
X95070814Y-71840609D01*
X94939125Y-71928602D01*
X94872447Y-71949480D01*
X94870234Y-71949500D01*
X90569602Y-71949500D01*
X90502563Y-71929815D01*
X90459117Y-71881795D01*
X90452287Y-71868390D01*
X90452285Y-71868387D01*
X90452284Y-71868385D01*
X90331971Y-71702786D01*
X90187213Y-71558028D01*
X90021613Y-71437715D01*
X90021612Y-71437714D01*
X90021610Y-71437713D01*
X89964653Y-71408691D01*
X89839223Y-71344781D01*
X89644534Y-71281522D01*
X89469995Y-71253878D01*
X89442352Y-71249500D01*
X89237648Y-71249500D01*
X89213329Y-71253351D01*
X89035465Y-71281522D01*
X88840776Y-71344781D01*
X88658386Y-71437715D01*
X88492786Y-71558028D01*
X88348028Y-71702786D01*
X88227715Y-71868386D01*
X88134781Y-72050776D01*
X88071522Y-72245465D01*
X88039500Y-72447648D01*
X88039500Y-72652351D01*
X88071522Y-72854534D01*
X88134781Y-73049223D01*
X88195001Y-73167409D01*
X88223320Y-73222989D01*
X88227715Y-73231613D01*
X88348028Y-73397213D01*
X88492786Y-73541971D01*
X88645327Y-73652796D01*
X88658390Y-73662287D01*
X88765056Y-73716636D01*
X88840776Y-73755218D01*
X88840778Y-73755218D01*
X88840781Y-73755220D01*
X88945137Y-73789127D01*
X89035465Y-73818477D01*
X89101519Y-73828939D01*
X89237648Y-73850500D01*
X89237649Y-73850500D01*
X89442351Y-73850500D01*
X89442352Y-73850500D01*
X89644534Y-73818477D01*
X89839219Y-73755220D01*
X90021610Y-73662287D01*
X90176138Y-73550017D01*
X90187213Y-73541971D01*
X90187215Y-73541968D01*
X90187219Y-73541966D01*
X90331966Y-73397219D01*
X90331968Y-73397215D01*
X90331971Y-73397213D01*
X90452284Y-73231614D01*
X90452285Y-73231613D01*
X90452287Y-73231610D01*
X90459117Y-73218204D01*
X90507091Y-73167409D01*
X90569602Y-73150500D01*
X94782272Y-73150500D01*
X94849311Y-73170185D01*
X94895066Y-73222989D01*
X94905010Y-73292147D01*
X94875985Y-73355703D01*
X94869953Y-73362181D01*
X90648340Y-77583793D01*
X90587017Y-77617278D01*
X90517325Y-77612294D01*
X90472978Y-77583793D01*
X90347213Y-77458028D01*
X90181613Y-77337715D01*
X90181612Y-77337714D01*
X90181610Y-77337713D01*
X90124653Y-77308691D01*
X89999223Y-77244781D01*
X89804534Y-77181522D01*
X89629995Y-77153878D01*
X89602352Y-77149500D01*
X89397648Y-77149500D01*
X89373329Y-77153351D01*
X89195465Y-77181522D01*
X89000776Y-77244781D01*
X88818386Y-77337715D01*
X88652786Y-77458028D01*
X88508028Y-77602786D01*
X88387715Y-77768386D01*
X88294781Y-77950776D01*
X88231522Y-78145465D01*
X88200015Y-78344394D01*
X88199500Y-78347648D01*
X88199500Y-78552352D01*
X88205463Y-78590000D01*
X88231523Y-78754535D01*
X88236172Y-78768845D01*
X88236605Y-78784052D01*
X88241924Y-78798308D01*
X88237582Y-78818269D01*
X88238165Y-78838687D01*
X88230078Y-78852770D01*
X88227075Y-78866581D01*
X88205926Y-78894837D01*
X88186588Y-78914177D01*
X88125266Y-78947665D01*
X88098902Y-78950500D01*
X87869942Y-78950500D01*
X87717214Y-78991423D01*
X87701494Y-79000500D01*
X87701489Y-79000503D01*
X87686497Y-79009158D01*
X87618596Y-79025628D01*
X87552570Y-79002774D01*
X87509381Y-78947851D01*
X87500500Y-78901769D01*
X87500500Y-65624500D01*
X87520185Y-65557461D01*
X87572989Y-65511706D01*
X87624500Y-65500500D01*
X91120192Y-65500500D01*
X91187231Y-65520185D01*
G37*
%TD.AperFunction*%
%TD*%
M02*
