%TF.GenerationSoftware,KiCad,Pcbnew,9.0.7*%
%TF.CreationDate,2026-08-21T19:55:50+05:30*%
%TF.ProjectId,12v to 5 v bug converter,31327620-746f-4203-9520-762062756720,rev?*%
%TF.SameCoordinates,Original*%
%TF.FileFunction,Legend,Top*%
%TF.FilePolarity,Positive*%
%FSLAX46Y46*%
G04 Gerber Fmt 4.6, Leading zero omitted, Abs format (unit mm)*
G04 Created by KiCad (PCBNEW 9.0.7) date 2026-08-21 19:55:50*
%MOMM*%
%LPD*%
G01*
G04 APERTURE LIST*
%ADD10C,0.125000*%
%ADD11C,0.150000*%
%ADD12C,0.120000*%
G04 APERTURE END LIST*
D10*
X110320331Y-92204452D02*
X110320331Y-93204452D01*
X110320331Y-92252071D02*
X110415569Y-92204452D01*
X110415569Y-92204452D02*
X110606045Y-92204452D01*
X110606045Y-92204452D02*
X110701283Y-92252071D01*
X110701283Y-92252071D02*
X110748902Y-92299690D01*
X110748902Y-92299690D02*
X110796521Y-92394928D01*
X110796521Y-92394928D02*
X110796521Y-92680642D01*
X110796521Y-92680642D02*
X110748902Y-92775880D01*
X110748902Y-92775880D02*
X110701283Y-92823500D01*
X110701283Y-92823500D02*
X110606045Y-92871119D01*
X110606045Y-92871119D02*
X110415569Y-92871119D01*
X110415569Y-92871119D02*
X110320331Y-92823500D01*
X111225093Y-92871119D02*
X111225093Y-92204452D01*
X111225093Y-92394928D02*
X111272712Y-92299690D01*
X111272712Y-92299690D02*
X111320331Y-92252071D01*
X111320331Y-92252071D02*
X111415569Y-92204452D01*
X111415569Y-92204452D02*
X111510807Y-92204452D01*
X111986998Y-92871119D02*
X111891760Y-92823500D01*
X111891760Y-92823500D02*
X111844141Y-92775880D01*
X111844141Y-92775880D02*
X111796522Y-92680642D01*
X111796522Y-92680642D02*
X111796522Y-92394928D01*
X111796522Y-92394928D02*
X111844141Y-92299690D01*
X111844141Y-92299690D02*
X111891760Y-92252071D01*
X111891760Y-92252071D02*
X111986998Y-92204452D01*
X111986998Y-92204452D02*
X112129855Y-92204452D01*
X112129855Y-92204452D02*
X112225093Y-92252071D01*
X112225093Y-92252071D02*
X112272712Y-92299690D01*
X112272712Y-92299690D02*
X112320331Y-92394928D01*
X112320331Y-92394928D02*
X112320331Y-92680642D01*
X112320331Y-92680642D02*
X112272712Y-92775880D01*
X112272712Y-92775880D02*
X112225093Y-92823500D01*
X112225093Y-92823500D02*
X112129855Y-92871119D01*
X112129855Y-92871119D02*
X111986998Y-92871119D01*
X113415570Y-91871119D02*
X114034617Y-91871119D01*
X114034617Y-91871119D02*
X113701284Y-92252071D01*
X113701284Y-92252071D02*
X113844141Y-92252071D01*
X113844141Y-92252071D02*
X113939379Y-92299690D01*
X113939379Y-92299690D02*
X113986998Y-92347309D01*
X113986998Y-92347309D02*
X114034617Y-92442547D01*
X114034617Y-92442547D02*
X114034617Y-92680642D01*
X114034617Y-92680642D02*
X113986998Y-92775880D01*
X113986998Y-92775880D02*
X113939379Y-92823500D01*
X113939379Y-92823500D02*
X113844141Y-92871119D01*
X113844141Y-92871119D02*
X113558427Y-92871119D01*
X113558427Y-92871119D02*
X113463189Y-92823500D01*
X113463189Y-92823500D02*
X113415570Y-92775880D01*
D11*
X96166666Y-75454819D02*
X95595238Y-75454819D01*
X95880952Y-75454819D02*
X95880952Y-74454819D01*
X95880952Y-74454819D02*
X95785714Y-74597676D01*
X95785714Y-74597676D02*
X95690476Y-74692914D01*
X95690476Y-74692914D02*
X95595238Y-74740533D01*
X96595238Y-75359580D02*
X96642857Y-75407200D01*
X96642857Y-75407200D02*
X96595238Y-75454819D01*
X96595238Y-75454819D02*
X96547619Y-75407200D01*
X96547619Y-75407200D02*
X96595238Y-75359580D01*
X96595238Y-75359580D02*
X96595238Y-75454819D01*
X96976190Y-74454819D02*
X97642856Y-74454819D01*
X97642856Y-74454819D02*
X97214285Y-75454819D01*
X98023809Y-75454819D02*
X98023809Y-74454819D01*
X98119047Y-75073866D02*
X98404761Y-75454819D01*
X98404761Y-74788152D02*
X98023809Y-75169104D01*
X92967619Y-65584819D02*
X93586666Y-65584819D01*
X93586666Y-65584819D02*
X93253333Y-65965771D01*
X93253333Y-65965771D02*
X93396190Y-65965771D01*
X93396190Y-65965771D02*
X93491428Y-66013390D01*
X93491428Y-66013390D02*
X93539047Y-66061009D01*
X93539047Y-66061009D02*
X93586666Y-66156247D01*
X93586666Y-66156247D02*
X93586666Y-66394342D01*
X93586666Y-66394342D02*
X93539047Y-66489580D01*
X93539047Y-66489580D02*
X93491428Y-66537200D01*
X93491428Y-66537200D02*
X93396190Y-66584819D01*
X93396190Y-66584819D02*
X93110476Y-66584819D01*
X93110476Y-66584819D02*
X93015238Y-66537200D01*
X93015238Y-66537200D02*
X92967619Y-66489580D01*
X94015238Y-66489580D02*
X94062857Y-66537200D01*
X94062857Y-66537200D02*
X94015238Y-66584819D01*
X94015238Y-66584819D02*
X93967619Y-66537200D01*
X93967619Y-66537200D02*
X94015238Y-66489580D01*
X94015238Y-66489580D02*
X94015238Y-66584819D01*
X94967618Y-65584819D02*
X94491428Y-65584819D01*
X94491428Y-65584819D02*
X94443809Y-66061009D01*
X94443809Y-66061009D02*
X94491428Y-66013390D01*
X94491428Y-66013390D02*
X94586666Y-65965771D01*
X94586666Y-65965771D02*
X94824761Y-65965771D01*
X94824761Y-65965771D02*
X94919999Y-66013390D01*
X94919999Y-66013390D02*
X94967618Y-66061009D01*
X94967618Y-66061009D02*
X95015237Y-66156247D01*
X95015237Y-66156247D02*
X95015237Y-66394342D01*
X95015237Y-66394342D02*
X94967618Y-66489580D01*
X94967618Y-66489580D02*
X94919999Y-66537200D01*
X94919999Y-66537200D02*
X94824761Y-66584819D01*
X94824761Y-66584819D02*
X94586666Y-66584819D01*
X94586666Y-66584819D02*
X94491428Y-66537200D01*
X94491428Y-66537200D02*
X94443809Y-66489580D01*
X95443809Y-66584819D02*
X95443809Y-65584819D01*
X95539047Y-66203866D02*
X95824761Y-66584819D01*
X95824761Y-65918152D02*
X95443809Y-66299104D01*
X94880952Y-93454819D02*
X94309524Y-93454819D01*
X94595238Y-93454819D02*
X94595238Y-92454819D01*
X94595238Y-92454819D02*
X94500000Y-92597676D01*
X94500000Y-92597676D02*
X94404762Y-92692914D01*
X94404762Y-92692914D02*
X94309524Y-92740533D01*
X95500000Y-92454819D02*
X95595238Y-92454819D01*
X95595238Y-92454819D02*
X95690476Y-92502438D01*
X95690476Y-92502438D02*
X95738095Y-92550057D01*
X95738095Y-92550057D02*
X95785714Y-92645295D01*
X95785714Y-92645295D02*
X95833333Y-92835771D01*
X95833333Y-92835771D02*
X95833333Y-93073866D01*
X95833333Y-93073866D02*
X95785714Y-93264342D01*
X95785714Y-93264342D02*
X95738095Y-93359580D01*
X95738095Y-93359580D02*
X95690476Y-93407200D01*
X95690476Y-93407200D02*
X95595238Y-93454819D01*
X95595238Y-93454819D02*
X95500000Y-93454819D01*
X95500000Y-93454819D02*
X95404762Y-93407200D01*
X95404762Y-93407200D02*
X95357143Y-93359580D01*
X95357143Y-93359580D02*
X95309524Y-93264342D01*
X95309524Y-93264342D02*
X95261905Y-93073866D01*
X95261905Y-93073866D02*
X95261905Y-92835771D01*
X95261905Y-92835771D02*
X95309524Y-92645295D01*
X95309524Y-92645295D02*
X95357143Y-92550057D01*
X95357143Y-92550057D02*
X95404762Y-92502438D01*
X95404762Y-92502438D02*
X95500000Y-92454819D01*
X96452381Y-92454819D02*
X96547619Y-92454819D01*
X96547619Y-92454819D02*
X96642857Y-92502438D01*
X96642857Y-92502438D02*
X96690476Y-92550057D01*
X96690476Y-92550057D02*
X96738095Y-92645295D01*
X96738095Y-92645295D02*
X96785714Y-92835771D01*
X96785714Y-92835771D02*
X96785714Y-93073866D01*
X96785714Y-93073866D02*
X96738095Y-93264342D01*
X96738095Y-93264342D02*
X96690476Y-93359580D01*
X96690476Y-93359580D02*
X96642857Y-93407200D01*
X96642857Y-93407200D02*
X96547619Y-93454819D01*
X96547619Y-93454819D02*
X96452381Y-93454819D01*
X96452381Y-93454819D02*
X96357143Y-93407200D01*
X96357143Y-93407200D02*
X96309524Y-93359580D01*
X96309524Y-93359580D02*
X96261905Y-93264342D01*
X96261905Y-93264342D02*
X96214286Y-93073866D01*
X96214286Y-93073866D02*
X96214286Y-92835771D01*
X96214286Y-92835771D02*
X96261905Y-92645295D01*
X96261905Y-92645295D02*
X96309524Y-92550057D01*
X96309524Y-92550057D02*
X96357143Y-92502438D01*
X96357143Y-92502438D02*
X96452381Y-92454819D01*
X97642857Y-92788152D02*
X97642857Y-93454819D01*
X97214286Y-92788152D02*
X97214286Y-93311961D01*
X97214286Y-93311961D02*
X97261905Y-93407200D01*
X97261905Y-93407200D02*
X97357143Y-93454819D01*
X97357143Y-93454819D02*
X97500000Y-93454819D01*
X97500000Y-93454819D02*
X97595238Y-93407200D01*
X97595238Y-93407200D02*
X97642857Y-93359580D01*
X105857142Y-75954819D02*
X105285714Y-75954819D01*
X105571428Y-75954819D02*
X105571428Y-74954819D01*
X105571428Y-74954819D02*
X105476190Y-75097676D01*
X105476190Y-75097676D02*
X105380952Y-75192914D01*
X105380952Y-75192914D02*
X105285714Y-75240533D01*
X106285714Y-75954819D02*
X106285714Y-74954819D01*
X106285714Y-74954819D02*
X106857142Y-75954819D01*
X106857142Y-75954819D02*
X106857142Y-74954819D01*
X107809523Y-74954819D02*
X107333333Y-74954819D01*
X107333333Y-74954819D02*
X107285714Y-75431009D01*
X107285714Y-75431009D02*
X107333333Y-75383390D01*
X107333333Y-75383390D02*
X107428571Y-75335771D01*
X107428571Y-75335771D02*
X107666666Y-75335771D01*
X107666666Y-75335771D02*
X107761904Y-75383390D01*
X107761904Y-75383390D02*
X107809523Y-75431009D01*
X107809523Y-75431009D02*
X107857142Y-75526247D01*
X107857142Y-75526247D02*
X107857142Y-75764342D01*
X107857142Y-75764342D02*
X107809523Y-75859580D01*
X107809523Y-75859580D02*
X107761904Y-75907200D01*
X107761904Y-75907200D02*
X107666666Y-75954819D01*
X107666666Y-75954819D02*
X107428571Y-75954819D01*
X107428571Y-75954819D02*
X107333333Y-75907200D01*
X107333333Y-75907200D02*
X107285714Y-75859580D01*
X108428571Y-75383390D02*
X108333333Y-75335771D01*
X108333333Y-75335771D02*
X108285714Y-75288152D01*
X108285714Y-75288152D02*
X108238095Y-75192914D01*
X108238095Y-75192914D02*
X108238095Y-75145295D01*
X108238095Y-75145295D02*
X108285714Y-75050057D01*
X108285714Y-75050057D02*
X108333333Y-75002438D01*
X108333333Y-75002438D02*
X108428571Y-74954819D01*
X108428571Y-74954819D02*
X108619047Y-74954819D01*
X108619047Y-74954819D02*
X108714285Y-75002438D01*
X108714285Y-75002438D02*
X108761904Y-75050057D01*
X108761904Y-75050057D02*
X108809523Y-75145295D01*
X108809523Y-75145295D02*
X108809523Y-75192914D01*
X108809523Y-75192914D02*
X108761904Y-75288152D01*
X108761904Y-75288152D02*
X108714285Y-75335771D01*
X108714285Y-75335771D02*
X108619047Y-75383390D01*
X108619047Y-75383390D02*
X108428571Y-75383390D01*
X108428571Y-75383390D02*
X108333333Y-75431009D01*
X108333333Y-75431009D02*
X108285714Y-75478628D01*
X108285714Y-75478628D02*
X108238095Y-75573866D01*
X108238095Y-75573866D02*
X108238095Y-75764342D01*
X108238095Y-75764342D02*
X108285714Y-75859580D01*
X108285714Y-75859580D02*
X108333333Y-75907200D01*
X108333333Y-75907200D02*
X108428571Y-75954819D01*
X108428571Y-75954819D02*
X108619047Y-75954819D01*
X108619047Y-75954819D02*
X108714285Y-75907200D01*
X108714285Y-75907200D02*
X108761904Y-75859580D01*
X108761904Y-75859580D02*
X108809523Y-75764342D01*
X108809523Y-75764342D02*
X108809523Y-75573866D01*
X108809523Y-75573866D02*
X108761904Y-75478628D01*
X108761904Y-75478628D02*
X108714285Y-75431009D01*
X108714285Y-75431009D02*
X108619047Y-75383390D01*
X109761904Y-75954819D02*
X109190476Y-75954819D01*
X109476190Y-75954819D02*
X109476190Y-74954819D01*
X109476190Y-74954819D02*
X109380952Y-75097676D01*
X109380952Y-75097676D02*
X109285714Y-75192914D01*
X109285714Y-75192914D02*
X109190476Y-75240533D01*
X110095238Y-74954819D02*
X110761904Y-74954819D01*
X110761904Y-74954819D02*
X110333333Y-75954819D01*
X100738095Y-72954819D02*
X100738095Y-71954819D01*
X101309523Y-72954819D02*
X100880952Y-72383390D01*
X101309523Y-71954819D02*
X100738095Y-72526247D01*
X99833333Y-88954819D02*
X99833333Y-87954819D01*
X99833333Y-87954819D02*
X100404761Y-88954819D01*
X100404761Y-88954819D02*
X100404761Y-87954819D01*
X100880952Y-88431009D02*
X101214285Y-88431009D01*
X101357142Y-88954819D02*
X100880952Y-88954819D01*
X100880952Y-88954819D02*
X100880952Y-87954819D01*
X100880952Y-87954819D02*
X101357142Y-87954819D01*
X102261904Y-87954819D02*
X101785714Y-87954819D01*
X101785714Y-87954819D02*
X101738095Y-88431009D01*
X101738095Y-88431009D02*
X101785714Y-88383390D01*
X101785714Y-88383390D02*
X101880952Y-88335771D01*
X101880952Y-88335771D02*
X102119047Y-88335771D01*
X102119047Y-88335771D02*
X102214285Y-88383390D01*
X102214285Y-88383390D02*
X102261904Y-88431009D01*
X102261904Y-88431009D02*
X102309523Y-88526247D01*
X102309523Y-88526247D02*
X102309523Y-88764342D01*
X102309523Y-88764342D02*
X102261904Y-88859580D01*
X102261904Y-88859580D02*
X102214285Y-88907200D01*
X102214285Y-88907200D02*
X102119047Y-88954819D01*
X102119047Y-88954819D02*
X101880952Y-88954819D01*
X101880952Y-88954819D02*
X101785714Y-88907200D01*
X101785714Y-88907200D02*
X101738095Y-88859580D01*
X103214285Y-87954819D02*
X102738095Y-87954819D01*
X102738095Y-87954819D02*
X102690476Y-88431009D01*
X102690476Y-88431009D02*
X102738095Y-88383390D01*
X102738095Y-88383390D02*
X102833333Y-88335771D01*
X102833333Y-88335771D02*
X103071428Y-88335771D01*
X103071428Y-88335771D02*
X103166666Y-88383390D01*
X103166666Y-88383390D02*
X103214285Y-88431009D01*
X103214285Y-88431009D02*
X103261904Y-88526247D01*
X103261904Y-88526247D02*
X103261904Y-88764342D01*
X103261904Y-88764342D02*
X103214285Y-88859580D01*
X103214285Y-88859580D02*
X103166666Y-88907200D01*
X103166666Y-88907200D02*
X103071428Y-88954819D01*
X103071428Y-88954819D02*
X102833333Y-88954819D01*
X102833333Y-88954819D02*
X102738095Y-88907200D01*
X102738095Y-88907200D02*
X102690476Y-88859580D01*
X104166666Y-87954819D02*
X103690476Y-87954819D01*
X103690476Y-87954819D02*
X103642857Y-88431009D01*
X103642857Y-88431009D02*
X103690476Y-88383390D01*
X103690476Y-88383390D02*
X103785714Y-88335771D01*
X103785714Y-88335771D02*
X104023809Y-88335771D01*
X104023809Y-88335771D02*
X104119047Y-88383390D01*
X104119047Y-88383390D02*
X104166666Y-88431009D01*
X104166666Y-88431009D02*
X104214285Y-88526247D01*
X104214285Y-88526247D02*
X104214285Y-88764342D01*
X104214285Y-88764342D02*
X104166666Y-88859580D01*
X104166666Y-88859580D02*
X104119047Y-88907200D01*
X104119047Y-88907200D02*
X104023809Y-88954819D01*
X104023809Y-88954819D02*
X103785714Y-88954819D01*
X103785714Y-88954819D02*
X103690476Y-88907200D01*
X103690476Y-88907200D02*
X103642857Y-88859580D01*
X113573866Y-84357143D02*
X113573866Y-83595239D01*
X113954819Y-82357143D02*
X112954819Y-82357143D01*
X113335771Y-82357143D02*
X113288152Y-82261905D01*
X113288152Y-82261905D02*
X113288152Y-82071429D01*
X113288152Y-82071429D02*
X113335771Y-81976191D01*
X113335771Y-81976191D02*
X113383390Y-81928572D01*
X113383390Y-81928572D02*
X113478628Y-81880953D01*
X113478628Y-81880953D02*
X113764342Y-81880953D01*
X113764342Y-81880953D02*
X113859580Y-81928572D01*
X113859580Y-81928572D02*
X113907200Y-81976191D01*
X113907200Y-81976191D02*
X113954819Y-82071429D01*
X113954819Y-82071429D02*
X113954819Y-82261905D01*
X113954819Y-82261905D02*
X113907200Y-82357143D01*
X113954819Y-81023810D02*
X113431009Y-81023810D01*
X113431009Y-81023810D02*
X113335771Y-81071429D01*
X113335771Y-81071429D02*
X113288152Y-81166667D01*
X113288152Y-81166667D02*
X113288152Y-81357143D01*
X113288152Y-81357143D02*
X113335771Y-81452381D01*
X113907200Y-81023810D02*
X113954819Y-81119048D01*
X113954819Y-81119048D02*
X113954819Y-81357143D01*
X113954819Y-81357143D02*
X113907200Y-81452381D01*
X113907200Y-81452381D02*
X113811961Y-81500000D01*
X113811961Y-81500000D02*
X113716723Y-81500000D01*
X113716723Y-81500000D02*
X113621485Y-81452381D01*
X113621485Y-81452381D02*
X113573866Y-81357143D01*
X113573866Y-81357143D02*
X113573866Y-81119048D01*
X113573866Y-81119048D02*
X113526247Y-81023810D01*
X113288152Y-80690476D02*
X113288152Y-80309524D01*
X112954819Y-80547619D02*
X113811961Y-80547619D01*
X113811961Y-80547619D02*
X113907200Y-80500000D01*
X113907200Y-80500000D02*
X113954819Y-80404762D01*
X113954819Y-80404762D02*
X113954819Y-80309524D01*
X113288152Y-80119047D02*
X113288152Y-79738095D01*
X112954819Y-79976190D02*
X113811961Y-79976190D01*
X113811961Y-79976190D02*
X113907200Y-79928571D01*
X113907200Y-79928571D02*
X113954819Y-79833333D01*
X113954819Y-79833333D02*
X113954819Y-79738095D01*
X113907200Y-79023809D02*
X113954819Y-79119047D01*
X113954819Y-79119047D02*
X113954819Y-79309523D01*
X113954819Y-79309523D02*
X113907200Y-79404761D01*
X113907200Y-79404761D02*
X113811961Y-79452380D01*
X113811961Y-79452380D02*
X113431009Y-79452380D01*
X113431009Y-79452380D02*
X113335771Y-79404761D01*
X113335771Y-79404761D02*
X113288152Y-79309523D01*
X113288152Y-79309523D02*
X113288152Y-79119047D01*
X113288152Y-79119047D02*
X113335771Y-79023809D01*
X113335771Y-79023809D02*
X113431009Y-78976190D01*
X113431009Y-78976190D02*
X113526247Y-78976190D01*
X113526247Y-78976190D02*
X113621485Y-79452380D01*
X113954819Y-78547618D02*
X113288152Y-78547618D01*
X113478628Y-78547618D02*
X113383390Y-78499999D01*
X113383390Y-78499999D02*
X113335771Y-78452380D01*
X113335771Y-78452380D02*
X113288152Y-78357142D01*
X113288152Y-78357142D02*
X113288152Y-78261904D01*
X113288152Y-78023808D02*
X113954819Y-77785713D01*
X113288152Y-77547618D02*
X113954819Y-77785713D01*
X113954819Y-77785713D02*
X114192914Y-77880951D01*
X114192914Y-77880951D02*
X114240533Y-77928570D01*
X114240533Y-77928570D02*
X114288152Y-78023808D01*
X113573866Y-76404760D02*
X113573866Y-75642856D01*
X113954819Y-76023808D02*
X113192914Y-76023808D01*
X107110476Y-65454819D02*
X107729523Y-65454819D01*
X107729523Y-65454819D02*
X107396190Y-65835771D01*
X107396190Y-65835771D02*
X107539047Y-65835771D01*
X107539047Y-65835771D02*
X107634285Y-65883390D01*
X107634285Y-65883390D02*
X107681904Y-65931009D01*
X107681904Y-65931009D02*
X107729523Y-66026247D01*
X107729523Y-66026247D02*
X107729523Y-66264342D01*
X107729523Y-66264342D02*
X107681904Y-66359580D01*
X107681904Y-66359580D02*
X107634285Y-66407200D01*
X107634285Y-66407200D02*
X107539047Y-66454819D01*
X107539047Y-66454819D02*
X107253333Y-66454819D01*
X107253333Y-66454819D02*
X107158095Y-66407200D01*
X107158095Y-66407200D02*
X107110476Y-66359580D01*
X108348571Y-65454819D02*
X108443809Y-65454819D01*
X108443809Y-65454819D02*
X108539047Y-65502438D01*
X108539047Y-65502438D02*
X108586666Y-65550057D01*
X108586666Y-65550057D02*
X108634285Y-65645295D01*
X108634285Y-65645295D02*
X108681904Y-65835771D01*
X108681904Y-65835771D02*
X108681904Y-66073866D01*
X108681904Y-66073866D02*
X108634285Y-66264342D01*
X108634285Y-66264342D02*
X108586666Y-66359580D01*
X108586666Y-66359580D02*
X108539047Y-66407200D01*
X108539047Y-66407200D02*
X108443809Y-66454819D01*
X108443809Y-66454819D02*
X108348571Y-66454819D01*
X108348571Y-66454819D02*
X108253333Y-66407200D01*
X108253333Y-66407200D02*
X108205714Y-66359580D01*
X108205714Y-66359580D02*
X108158095Y-66264342D01*
X108158095Y-66264342D02*
X108110476Y-66073866D01*
X108110476Y-66073866D02*
X108110476Y-65835771D01*
X108110476Y-65835771D02*
X108158095Y-65645295D01*
X108158095Y-65645295D02*
X108205714Y-65550057D01*
X108205714Y-65550057D02*
X108253333Y-65502438D01*
X108253333Y-65502438D02*
X108348571Y-65454819D01*
X109925840Y-85704819D02*
X109354412Y-85704819D01*
X109640126Y-85704819D02*
X109640126Y-84704819D01*
X109640126Y-84704819D02*
X109544888Y-84847676D01*
X109544888Y-84847676D02*
X109449650Y-84942914D01*
X109449650Y-84942914D02*
X109354412Y-84990533D01*
X110544888Y-84704819D02*
X110640126Y-84704819D01*
X110640126Y-84704819D02*
X110735364Y-84752438D01*
X110735364Y-84752438D02*
X110782983Y-84800057D01*
X110782983Y-84800057D02*
X110830602Y-84895295D01*
X110830602Y-84895295D02*
X110878221Y-85085771D01*
X110878221Y-85085771D02*
X110878221Y-85323866D01*
X110878221Y-85323866D02*
X110830602Y-85514342D01*
X110830602Y-85514342D02*
X110782983Y-85609580D01*
X110782983Y-85609580D02*
X110735364Y-85657200D01*
X110735364Y-85657200D02*
X110640126Y-85704819D01*
X110640126Y-85704819D02*
X110544888Y-85704819D01*
X110544888Y-85704819D02*
X110449650Y-85657200D01*
X110449650Y-85657200D02*
X110402031Y-85609580D01*
X110402031Y-85609580D02*
X110354412Y-85514342D01*
X110354412Y-85514342D02*
X110306793Y-85323866D01*
X110306793Y-85323866D02*
X110306793Y-85085771D01*
X110306793Y-85085771D02*
X110354412Y-84895295D01*
X110354412Y-84895295D02*
X110402031Y-84800057D01*
X110402031Y-84800057D02*
X110449650Y-84752438D01*
X110449650Y-84752438D02*
X110544888Y-84704819D01*
X111497269Y-84704819D02*
X111592507Y-84704819D01*
X111592507Y-84704819D02*
X111687745Y-84752438D01*
X111687745Y-84752438D02*
X111735364Y-84800057D01*
X111735364Y-84800057D02*
X111782983Y-84895295D01*
X111782983Y-84895295D02*
X111830602Y-85085771D01*
X111830602Y-85085771D02*
X111830602Y-85323866D01*
X111830602Y-85323866D02*
X111782983Y-85514342D01*
X111782983Y-85514342D02*
X111735364Y-85609580D01*
X111735364Y-85609580D02*
X111687745Y-85657200D01*
X111687745Y-85657200D02*
X111592507Y-85704819D01*
X111592507Y-85704819D02*
X111497269Y-85704819D01*
X111497269Y-85704819D02*
X111402031Y-85657200D01*
X111402031Y-85657200D02*
X111354412Y-85609580D01*
X111354412Y-85609580D02*
X111306793Y-85514342D01*
X111306793Y-85514342D02*
X111259174Y-85323866D01*
X111259174Y-85323866D02*
X111259174Y-85085771D01*
X111259174Y-85085771D02*
X111306793Y-84895295D01*
X111306793Y-84895295D02*
X111354412Y-84800057D01*
X111354412Y-84800057D02*
X111402031Y-84752438D01*
X111402031Y-84752438D02*
X111497269Y-84704819D01*
X112687745Y-85038152D02*
X112687745Y-85704819D01*
X112259174Y-85038152D02*
X112259174Y-85561961D01*
X112259174Y-85561961D02*
X112306793Y-85657200D01*
X112306793Y-85657200D02*
X112402031Y-85704819D01*
X112402031Y-85704819D02*
X112544888Y-85704819D01*
X112544888Y-85704819D02*
X112640126Y-85657200D01*
X112640126Y-85657200D02*
X112687745Y-85609580D01*
X90309524Y-75404819D02*
X90404762Y-75404819D01*
X90404762Y-75404819D02*
X90500000Y-75452438D01*
X90500000Y-75452438D02*
X90547619Y-75500057D01*
X90547619Y-75500057D02*
X90595238Y-75595295D01*
X90595238Y-75595295D02*
X90642857Y-75785771D01*
X90642857Y-75785771D02*
X90642857Y-76023866D01*
X90642857Y-76023866D02*
X90595238Y-76214342D01*
X90595238Y-76214342D02*
X90547619Y-76309580D01*
X90547619Y-76309580D02*
X90500000Y-76357200D01*
X90500000Y-76357200D02*
X90404762Y-76404819D01*
X90404762Y-76404819D02*
X90309524Y-76404819D01*
X90309524Y-76404819D02*
X90214286Y-76357200D01*
X90214286Y-76357200D02*
X90166667Y-76309580D01*
X90166667Y-76309580D02*
X90119048Y-76214342D01*
X90119048Y-76214342D02*
X90071429Y-76023866D01*
X90071429Y-76023866D02*
X90071429Y-75785771D01*
X90071429Y-75785771D02*
X90119048Y-75595295D01*
X90119048Y-75595295D02*
X90166667Y-75500057D01*
X90166667Y-75500057D02*
X90214286Y-75452438D01*
X90214286Y-75452438D02*
X90309524Y-75404819D01*
X91071429Y-76309580D02*
X91119048Y-76357200D01*
X91119048Y-76357200D02*
X91071429Y-76404819D01*
X91071429Y-76404819D02*
X91023810Y-76357200D01*
X91023810Y-76357200D02*
X91071429Y-76309580D01*
X91071429Y-76309580D02*
X91071429Y-76404819D01*
X91738095Y-75404819D02*
X91833333Y-75404819D01*
X91833333Y-75404819D02*
X91928571Y-75452438D01*
X91928571Y-75452438D02*
X91976190Y-75500057D01*
X91976190Y-75500057D02*
X92023809Y-75595295D01*
X92023809Y-75595295D02*
X92071428Y-75785771D01*
X92071428Y-75785771D02*
X92071428Y-76023866D01*
X92071428Y-76023866D02*
X92023809Y-76214342D01*
X92023809Y-76214342D02*
X91976190Y-76309580D01*
X91976190Y-76309580D02*
X91928571Y-76357200D01*
X91928571Y-76357200D02*
X91833333Y-76404819D01*
X91833333Y-76404819D02*
X91738095Y-76404819D01*
X91738095Y-76404819D02*
X91642857Y-76357200D01*
X91642857Y-76357200D02*
X91595238Y-76309580D01*
X91595238Y-76309580D02*
X91547619Y-76214342D01*
X91547619Y-76214342D02*
X91500000Y-76023866D01*
X91500000Y-76023866D02*
X91500000Y-75785771D01*
X91500000Y-75785771D02*
X91547619Y-75595295D01*
X91547619Y-75595295D02*
X91595238Y-75500057D01*
X91595238Y-75500057D02*
X91642857Y-75452438D01*
X91642857Y-75452438D02*
X91738095Y-75404819D01*
X93023809Y-76404819D02*
X92452381Y-76404819D01*
X92738095Y-76404819D02*
X92738095Y-75404819D01*
X92738095Y-75404819D02*
X92642857Y-75547676D01*
X92642857Y-75547676D02*
X92547619Y-75642914D01*
X92547619Y-75642914D02*
X92452381Y-75690533D01*
X93880952Y-75738152D02*
X93880952Y-76404819D01*
X93452381Y-75738152D02*
X93452381Y-76261961D01*
X93452381Y-76261961D02*
X93500000Y-76357200D01*
X93500000Y-76357200D02*
X93595238Y-76404819D01*
X93595238Y-76404819D02*
X93738095Y-76404819D01*
X93738095Y-76404819D02*
X93833333Y-76357200D01*
X93833333Y-76357200D02*
X93880952Y-76309580D01*
X90309524Y-84454819D02*
X90404762Y-84454819D01*
X90404762Y-84454819D02*
X90500000Y-84502438D01*
X90500000Y-84502438D02*
X90547619Y-84550057D01*
X90547619Y-84550057D02*
X90595238Y-84645295D01*
X90595238Y-84645295D02*
X90642857Y-84835771D01*
X90642857Y-84835771D02*
X90642857Y-85073866D01*
X90642857Y-85073866D02*
X90595238Y-85264342D01*
X90595238Y-85264342D02*
X90547619Y-85359580D01*
X90547619Y-85359580D02*
X90500000Y-85407200D01*
X90500000Y-85407200D02*
X90404762Y-85454819D01*
X90404762Y-85454819D02*
X90309524Y-85454819D01*
X90309524Y-85454819D02*
X90214286Y-85407200D01*
X90214286Y-85407200D02*
X90166667Y-85359580D01*
X90166667Y-85359580D02*
X90119048Y-85264342D01*
X90119048Y-85264342D02*
X90071429Y-85073866D01*
X90071429Y-85073866D02*
X90071429Y-84835771D01*
X90071429Y-84835771D02*
X90119048Y-84645295D01*
X90119048Y-84645295D02*
X90166667Y-84550057D01*
X90166667Y-84550057D02*
X90214286Y-84502438D01*
X90214286Y-84502438D02*
X90309524Y-84454819D01*
X91071429Y-85359580D02*
X91119048Y-85407200D01*
X91119048Y-85407200D02*
X91071429Y-85454819D01*
X91071429Y-85454819D02*
X91023810Y-85407200D01*
X91023810Y-85407200D02*
X91071429Y-85359580D01*
X91071429Y-85359580D02*
X91071429Y-85454819D01*
X91738095Y-84454819D02*
X91833333Y-84454819D01*
X91833333Y-84454819D02*
X91928571Y-84502438D01*
X91928571Y-84502438D02*
X91976190Y-84550057D01*
X91976190Y-84550057D02*
X92023809Y-84645295D01*
X92023809Y-84645295D02*
X92071428Y-84835771D01*
X92071428Y-84835771D02*
X92071428Y-85073866D01*
X92071428Y-85073866D02*
X92023809Y-85264342D01*
X92023809Y-85264342D02*
X91976190Y-85359580D01*
X91976190Y-85359580D02*
X91928571Y-85407200D01*
X91928571Y-85407200D02*
X91833333Y-85454819D01*
X91833333Y-85454819D02*
X91738095Y-85454819D01*
X91738095Y-85454819D02*
X91642857Y-85407200D01*
X91642857Y-85407200D02*
X91595238Y-85359580D01*
X91595238Y-85359580D02*
X91547619Y-85264342D01*
X91547619Y-85264342D02*
X91500000Y-85073866D01*
X91500000Y-85073866D02*
X91500000Y-84835771D01*
X91500000Y-84835771D02*
X91547619Y-84645295D01*
X91547619Y-84645295D02*
X91595238Y-84550057D01*
X91595238Y-84550057D02*
X91642857Y-84502438D01*
X91642857Y-84502438D02*
X91738095Y-84454819D01*
X93023809Y-85454819D02*
X92452381Y-85454819D01*
X92738095Y-85454819D02*
X92738095Y-84454819D01*
X92738095Y-84454819D02*
X92642857Y-84597676D01*
X92642857Y-84597676D02*
X92547619Y-84692914D01*
X92547619Y-84692914D02*
X92452381Y-84740533D01*
X93880952Y-84788152D02*
X93880952Y-85454819D01*
X93452381Y-84788152D02*
X93452381Y-85311961D01*
X93452381Y-85311961D02*
X93500000Y-85407200D01*
X93500000Y-85407200D02*
X93595238Y-85454819D01*
X93595238Y-85454819D02*
X93738095Y-85454819D01*
X93738095Y-85454819D02*
X93833333Y-85407200D01*
X93833333Y-85407200D02*
X93880952Y-85359580D01*
X103166666Y-92931009D02*
X103309523Y-92978628D01*
X103309523Y-92978628D02*
X103357142Y-93026247D01*
X103357142Y-93026247D02*
X103404761Y-93121485D01*
X103404761Y-93121485D02*
X103404761Y-93264342D01*
X103404761Y-93264342D02*
X103357142Y-93359580D01*
X103357142Y-93359580D02*
X103309523Y-93407200D01*
X103309523Y-93407200D02*
X103214285Y-93454819D01*
X103214285Y-93454819D02*
X102833333Y-93454819D01*
X102833333Y-93454819D02*
X102833333Y-92454819D01*
X102833333Y-92454819D02*
X103166666Y-92454819D01*
X103166666Y-92454819D02*
X103261904Y-92502438D01*
X103261904Y-92502438D02*
X103309523Y-92550057D01*
X103309523Y-92550057D02*
X103357142Y-92645295D01*
X103357142Y-92645295D02*
X103357142Y-92740533D01*
X103357142Y-92740533D02*
X103309523Y-92835771D01*
X103309523Y-92835771D02*
X103261904Y-92883390D01*
X103261904Y-92883390D02*
X103166666Y-92931009D01*
X103166666Y-92931009D02*
X102833333Y-92931009D01*
X103785714Y-93407200D02*
X103928571Y-93454819D01*
X103928571Y-93454819D02*
X104166666Y-93454819D01*
X104166666Y-93454819D02*
X104261904Y-93407200D01*
X104261904Y-93407200D02*
X104309523Y-93359580D01*
X104309523Y-93359580D02*
X104357142Y-93264342D01*
X104357142Y-93264342D02*
X104357142Y-93169104D01*
X104357142Y-93169104D02*
X104309523Y-93073866D01*
X104309523Y-93073866D02*
X104261904Y-93026247D01*
X104261904Y-93026247D02*
X104166666Y-92978628D01*
X104166666Y-92978628D02*
X103976190Y-92931009D01*
X103976190Y-92931009D02*
X103880952Y-92883390D01*
X103880952Y-92883390D02*
X103833333Y-92835771D01*
X103833333Y-92835771D02*
X103785714Y-92740533D01*
X103785714Y-92740533D02*
X103785714Y-92645295D01*
X103785714Y-92645295D02*
X103833333Y-92550057D01*
X103833333Y-92550057D02*
X103880952Y-92502438D01*
X103880952Y-92502438D02*
X103976190Y-92454819D01*
X103976190Y-92454819D02*
X104214285Y-92454819D01*
X104214285Y-92454819D02*
X104357142Y-92502438D01*
X104738095Y-93407200D02*
X104880952Y-93454819D01*
X104880952Y-93454819D02*
X105119047Y-93454819D01*
X105119047Y-93454819D02*
X105214285Y-93407200D01*
X105214285Y-93407200D02*
X105261904Y-93359580D01*
X105261904Y-93359580D02*
X105309523Y-93264342D01*
X105309523Y-93264342D02*
X105309523Y-93169104D01*
X105309523Y-93169104D02*
X105261904Y-93073866D01*
X105261904Y-93073866D02*
X105214285Y-93026247D01*
X105214285Y-93026247D02*
X105119047Y-92978628D01*
X105119047Y-92978628D02*
X104928571Y-92931009D01*
X104928571Y-92931009D02*
X104833333Y-92883390D01*
X104833333Y-92883390D02*
X104785714Y-92835771D01*
X104785714Y-92835771D02*
X104738095Y-92740533D01*
X104738095Y-92740533D02*
X104738095Y-92645295D01*
X104738095Y-92645295D02*
X104785714Y-92550057D01*
X104785714Y-92550057D02*
X104833333Y-92502438D01*
X104833333Y-92502438D02*
X104928571Y-92454819D01*
X104928571Y-92454819D02*
X105166666Y-92454819D01*
X105166666Y-92454819D02*
X105309523Y-92502438D01*
X105880952Y-92883390D02*
X105785714Y-92835771D01*
X105785714Y-92835771D02*
X105738095Y-92788152D01*
X105738095Y-92788152D02*
X105690476Y-92692914D01*
X105690476Y-92692914D02*
X105690476Y-92645295D01*
X105690476Y-92645295D02*
X105738095Y-92550057D01*
X105738095Y-92550057D02*
X105785714Y-92502438D01*
X105785714Y-92502438D02*
X105880952Y-92454819D01*
X105880952Y-92454819D02*
X106071428Y-92454819D01*
X106071428Y-92454819D02*
X106166666Y-92502438D01*
X106166666Y-92502438D02*
X106214285Y-92550057D01*
X106214285Y-92550057D02*
X106261904Y-92645295D01*
X106261904Y-92645295D02*
X106261904Y-92692914D01*
X106261904Y-92692914D02*
X106214285Y-92788152D01*
X106214285Y-92788152D02*
X106166666Y-92835771D01*
X106166666Y-92835771D02*
X106071428Y-92883390D01*
X106071428Y-92883390D02*
X105880952Y-92883390D01*
X105880952Y-92883390D02*
X105785714Y-92931009D01*
X105785714Y-92931009D02*
X105738095Y-92978628D01*
X105738095Y-92978628D02*
X105690476Y-93073866D01*
X105690476Y-93073866D02*
X105690476Y-93264342D01*
X105690476Y-93264342D02*
X105738095Y-93359580D01*
X105738095Y-93359580D02*
X105785714Y-93407200D01*
X105785714Y-93407200D02*
X105880952Y-93454819D01*
X105880952Y-93454819D02*
X106071428Y-93454819D01*
X106071428Y-93454819D02*
X106166666Y-93407200D01*
X106166666Y-93407200D02*
X106214285Y-93359580D01*
X106214285Y-93359580D02*
X106261904Y-93264342D01*
X106261904Y-93264342D02*
X106261904Y-93073866D01*
X106261904Y-93073866D02*
X106214285Y-92978628D01*
X106214285Y-92978628D02*
X106166666Y-92931009D01*
X106166666Y-92931009D02*
X106071428Y-92883390D01*
X107119047Y-92788152D02*
X107119047Y-93454819D01*
X106880952Y-92407200D02*
X106642857Y-93121485D01*
X106642857Y-93121485D02*
X107261904Y-93121485D01*
D12*
%TO.C,1.7k*%
X90380000Y-72550000D02*
X91150000Y-72550000D01*
X98460000Y-72550000D02*
X97690000Y-72550000D01*
X91150000Y-71180000D02*
X97690000Y-71180000D01*
X97690000Y-73920000D01*
X91150000Y-73920000D01*
X91150000Y-71180000D01*
%TO.C,3.5k*%
X90380000Y-68500000D02*
X91150000Y-68500000D01*
X98460000Y-68500000D02*
X97690000Y-68500000D01*
X91150000Y-67130000D02*
X97690000Y-67130000D01*
X97690000Y-69870000D01*
X91150000Y-69870000D01*
X91150000Y-67130000D01*
%TO.C,100u*%
X88645740Y-88240000D02*
G75*
G02*
X94354260Y-88240000I2854260J-1260000D01*
G01*
X94354260Y-90760000D02*
G75*
G02*
X88645740Y-90760000I-2854260J1260000D01*
G01*
%TO.C,1N5817*%
X104480000Y-72650000D02*
X105500000Y-72650000D01*
X106280000Y-71180000D02*
X106280000Y-74120000D01*
X106400000Y-71180000D02*
X106400000Y-74120000D01*
X106520000Y-71180000D02*
X106520000Y-74120000D01*
X111960000Y-72650000D02*
X110940000Y-72650000D01*
X105500000Y-71180000D02*
X110940000Y-71180000D01*
X110940000Y-74120000D01*
X105500000Y-74120000D01*
X105500000Y-71180000D01*
%TO.C,NE555*%
X99355000Y-76860000D02*
X99355000Y-87140000D01*
X99355000Y-87140000D02*
X104655000Y-87140000D01*
X101005000Y-76860000D02*
X99355000Y-76860000D01*
X104655000Y-76860000D02*
X103005000Y-76860000D01*
X104655000Y-87140000D02*
X104655000Y-76860000D01*
X103005000Y-76860000D02*
G75*
G02*
X101005000Y-76860000I-1000000J0D01*
G01*
%TO.C,- battery +*%
X109120000Y-77345000D02*
X110500000Y-77345000D01*
X109120000Y-78725000D02*
X109120000Y-77345000D01*
X109120000Y-79995000D02*
X109120000Y-82645000D01*
X109120000Y-79995000D02*
X111880000Y-79995000D01*
X109120000Y-82645000D02*
X111880000Y-82645000D01*
X111880000Y-79995000D02*
X111880000Y-82645000D01*
%TO.C,30*%
X103880000Y-68500000D02*
X104650000Y-68500000D01*
X111960000Y-68500000D02*
X111190000Y-68500000D01*
X104650000Y-67130000D02*
X111190000Y-67130000D01*
X111190000Y-69870000D01*
X104650000Y-69870000D01*
X104650000Y-67130000D01*
%TO.C,100u*%
X108240113Y-87525000D02*
X108740113Y-87525000D01*
X108490113Y-87275000D02*
X108490113Y-87775000D01*
X111044888Y-86420000D02*
X111044888Y-91580000D01*
X111084888Y-86420000D02*
X111084888Y-91580000D01*
X111124888Y-86421000D02*
X111124888Y-91579000D01*
X111164888Y-86423000D02*
X111164888Y-91577000D01*
X111204888Y-86425000D02*
X111204888Y-91575000D01*
X111244888Y-86428000D02*
X111244888Y-91572000D01*
X111284888Y-86431000D02*
X111284888Y-87960000D01*
X111284888Y-90040000D02*
X111284888Y-91569000D01*
X111324888Y-86435000D02*
X111324888Y-87960000D01*
X111324888Y-90040000D02*
X111324888Y-91565000D01*
X111364888Y-86440000D02*
X111364888Y-87960000D01*
X111364888Y-90040000D02*
X111364888Y-91560000D01*
X111404888Y-86445000D02*
X111404888Y-87960000D01*
X111404888Y-90040000D02*
X111404888Y-91555000D01*
X111444888Y-86451000D02*
X111444888Y-87960000D01*
X111444888Y-90040000D02*
X111444888Y-91549000D01*
X111484888Y-86457000D02*
X111484888Y-87960000D01*
X111484888Y-90040000D02*
X111484888Y-91543000D01*
X111524888Y-86464000D02*
X111524888Y-87960000D01*
X111524888Y-90040000D02*
X111524888Y-91536000D01*
X111564888Y-86472000D02*
X111564888Y-87960000D01*
X111564888Y-90040000D02*
X111564888Y-91528000D01*
X111604888Y-86481000D02*
X111604888Y-87960000D01*
X111604888Y-90040000D02*
X111604888Y-91519000D01*
X111644888Y-86490000D02*
X111644888Y-87960000D01*
X111644888Y-90040000D02*
X111644888Y-91510000D01*
X111684888Y-86499000D02*
X111684888Y-87960000D01*
X111684888Y-90040000D02*
X111684888Y-91501000D01*
X111724888Y-86510000D02*
X111724888Y-87960000D01*
X111724888Y-90040000D02*
X111724888Y-91490000D01*
X111764888Y-86521000D02*
X111764888Y-87960000D01*
X111764888Y-90040000D02*
X111764888Y-91479000D01*
X111804888Y-86533000D02*
X111804888Y-87960000D01*
X111804888Y-90040000D02*
X111804888Y-91467000D01*
X111844888Y-86545000D02*
X111844888Y-87960000D01*
X111844888Y-90040000D02*
X111844888Y-91455000D01*
X111884888Y-86558000D02*
X111884888Y-87960000D01*
X111884888Y-90040000D02*
X111884888Y-91442000D01*
X111924888Y-86572000D02*
X111924888Y-87960000D01*
X111924888Y-90040000D02*
X111924888Y-91428000D01*
X111964888Y-86587000D02*
X111964888Y-87960000D01*
X111964888Y-90040000D02*
X111964888Y-91413000D01*
X112004888Y-86602000D02*
X112004888Y-87960000D01*
X112004888Y-90040000D02*
X112004888Y-91398000D01*
X112044888Y-86618000D02*
X112044888Y-87960000D01*
X112044888Y-90040000D02*
X112044888Y-91382000D01*
X112084888Y-86635000D02*
X112084888Y-87960000D01*
X112084888Y-90040000D02*
X112084888Y-91365000D01*
X112124888Y-86653000D02*
X112124888Y-87960000D01*
X112124888Y-90040000D02*
X112124888Y-91347000D01*
X112164888Y-86671000D02*
X112164888Y-87960000D01*
X112164888Y-90040000D02*
X112164888Y-91329000D01*
X112204888Y-86691000D02*
X112204888Y-87960000D01*
X112204888Y-90040000D02*
X112204888Y-91309000D01*
X112244888Y-86711000D02*
X112244888Y-87960000D01*
X112244888Y-90040000D02*
X112244888Y-91289000D01*
X112284888Y-86732000D02*
X112284888Y-87960000D01*
X112284888Y-90040000D02*
X112284888Y-91268000D01*
X112324888Y-86754000D02*
X112324888Y-87960000D01*
X112324888Y-90040000D02*
X112324888Y-91246000D01*
X112364888Y-86777000D02*
X112364888Y-87960000D01*
X112364888Y-90040000D02*
X112364888Y-91223000D01*
X112404888Y-86801000D02*
X112404888Y-87960000D01*
X112404888Y-90040000D02*
X112404888Y-91199000D01*
X112444888Y-86825000D02*
X112444888Y-87960000D01*
X112444888Y-90040000D02*
X112444888Y-91175000D01*
X112484888Y-86851000D02*
X112484888Y-87960000D01*
X112484888Y-90040000D02*
X112484888Y-91149000D01*
X112524888Y-86878000D02*
X112524888Y-87960000D01*
X112524888Y-90040000D02*
X112524888Y-91122000D01*
X112564888Y-86906000D02*
X112564888Y-87960000D01*
X112564888Y-90040000D02*
X112564888Y-91094000D01*
X112604888Y-86935000D02*
X112604888Y-87960000D01*
X112604888Y-90040000D02*
X112604888Y-91065000D01*
X112644888Y-86965000D02*
X112644888Y-87960000D01*
X112644888Y-90040000D02*
X112644888Y-91035000D01*
X112684888Y-86997000D02*
X112684888Y-87960000D01*
X112684888Y-90040000D02*
X112684888Y-91003000D01*
X112724888Y-87030000D02*
X112724888Y-87960000D01*
X112724888Y-90040000D02*
X112724888Y-90970000D01*
X112764888Y-87064000D02*
X112764888Y-87960000D01*
X112764888Y-90040000D02*
X112764888Y-90936000D01*
X112804888Y-87099000D02*
X112804888Y-87960000D01*
X112804888Y-90040000D02*
X112804888Y-90901000D01*
X112844888Y-87136000D02*
X112844888Y-87960000D01*
X112844888Y-90040000D02*
X112844888Y-90864000D01*
X112884888Y-87175000D02*
X112884888Y-87960000D01*
X112884888Y-90040000D02*
X112884888Y-90825000D01*
X112924888Y-87215000D02*
X112924888Y-87960000D01*
X112924888Y-90040000D02*
X112924888Y-90785000D01*
X112964888Y-87257000D02*
X112964888Y-87960000D01*
X112964888Y-90040000D02*
X112964888Y-90743000D01*
X113004888Y-87301000D02*
X113004888Y-87960000D01*
X113004888Y-90040000D02*
X113004888Y-90699000D01*
X113044888Y-87348000D02*
X113044888Y-87960000D01*
X113044888Y-90040000D02*
X113044888Y-90652000D01*
X113084888Y-87396000D02*
X113084888Y-87960000D01*
X113084888Y-90040000D02*
X113084888Y-90604000D01*
X113124888Y-87447000D02*
X113124888Y-87960000D01*
X113124888Y-90040000D02*
X113124888Y-90553000D01*
X113164888Y-87501000D02*
X113164888Y-87960000D01*
X113164888Y-90040000D02*
X113164888Y-90499000D01*
X113204888Y-87557000D02*
X113204888Y-87960000D01*
X113204888Y-90040000D02*
X113204888Y-90443000D01*
X113244888Y-87617000D02*
X113244888Y-87960000D01*
X113244888Y-90040000D02*
X113244888Y-90383000D01*
X113284888Y-87681000D02*
X113284888Y-87960000D01*
X113284888Y-90040000D02*
X113284888Y-90319000D01*
X113324888Y-87749000D02*
X113324888Y-87960000D01*
X113324888Y-90040000D02*
X113324888Y-90251000D01*
X113364888Y-87823000D02*
X113364888Y-90177000D01*
X113404888Y-87902000D02*
X113404888Y-90098000D01*
X113444888Y-87989000D02*
X113444888Y-90011000D01*
X113484888Y-88086000D02*
X113484888Y-89914000D01*
X113524888Y-88195000D02*
X113524888Y-89805000D01*
X113564888Y-88323000D02*
X113564888Y-89677000D01*
X113604888Y-88483000D02*
X113604888Y-89517000D01*
X113644888Y-88717000D02*
X113644888Y-89283000D01*
X113664888Y-89000000D02*
G75*
G02*
X108424888Y-89000000I-2620000J0D01*
G01*
X108424888Y-89000000D02*
G75*
G02*
X113664888Y-89000000I2620000J0D01*
G01*
%TO.C,0.01u*%
X89380000Y-77080000D02*
X94620000Y-77080000D01*
X89380000Y-77417000D02*
X89380000Y-77080000D01*
X89380000Y-79820000D02*
X89380000Y-79483000D01*
X94620000Y-77080000D02*
X94620000Y-77417000D01*
X94620000Y-79483000D02*
X94620000Y-79820000D01*
X94620000Y-79820000D02*
X89380000Y-79820000D01*
X89380000Y-81130000D02*
X94620000Y-81130000D01*
X89380000Y-81467000D02*
X89380000Y-81130000D01*
X89380000Y-83870000D02*
X89380000Y-83533000D01*
X94620000Y-81130000D02*
X94620000Y-81467000D01*
X94620000Y-83533000D02*
X94620000Y-83870000D01*
X94620000Y-83870000D02*
X89380000Y-83870000D01*
%TO.C,BSS84*%
X100740000Y-89440000D02*
X102260000Y-89440000D01*
X100740000Y-89490000D02*
X100740000Y-89440000D01*
X100740000Y-91390000D02*
X100740000Y-90610000D01*
X100740000Y-92560000D02*
X100740000Y-92510000D01*
X102260000Y-89440000D02*
X102260000Y-90440000D01*
X102260000Y-91560000D02*
X102260000Y-92560000D01*
X102260000Y-92560000D02*
X100740000Y-92560000D01*
X100440000Y-90950000D02*
X99960000Y-90950000D01*
X100200000Y-90620000D01*
X100440000Y-90950000D01*
G36*
X100440000Y-90950000D02*
G01*
X99960000Y-90950000D01*
X100200000Y-90620000D01*
X100440000Y-90950000D01*
G37*
%TD*%
M02*
