%TF.GenerationSoftware,KiCad,Pcbnew,9.0.7*%
%TF.CreationDate,2026-08-21T19:55:50+05:30*%
%TF.ProjectId,12v to 5 v bug converter,31327620-746f-4203-9520-762062756720,rev?*%
%TF.SameCoordinates,Original*%
%TF.FileFunction,Copper,L1,Top*%
%TF.FilePolarity,Positive*%
%FSLAX46Y46*%
G04 Gerber Fmt 4.6, Leading zero omitted, Abs format (unit mm)*
G04 Created by KiCad (PCBNEW 9.0.7) date 2026-08-21 19:55:50*
%MOMM*%
%LPD*%
G01*
G04 APERTURE LIST*
G04 Aperture macros list*
%AMRoundRect*
0 Rectangle with rounded corners*
0 $1 Rounding radius*
0 $2 $3 $4 $5 $6 $7 $8 $9 X,Y pos of 4 corners*
0 Add a 4 corners polygon primitive as box body*
4,1,4,$2,$3,$4,$5,$6,$7,$8,$9,$2,$3,0*
0 Add four circle primitives for the rounded corners*
1,1,$1+$1,$2,$3*
1,1,$1+$1,$4,$5*
1,1,$1+$1,$6,$7*
1,1,$1+$1,$8,$9*
0 Add four rect primitives between the rounded corners*
20,1,$1+$1,$2,$3,$4,$5,0*
20,1,$1+$1,$4,$5,$6,$7,0*
20,1,$1+$1,$6,$7,$8,$9,0*
20,1,$1+$1,$8,$9,$2,$3,0*%
G04 Aperture macros list end*
%TA.AperFunction,ComponentPad*%
%ADD10C,1.600000*%
%TD*%
%TA.AperFunction,ComponentPad*%
%ADD11C,2.000000*%
%TD*%
%TA.AperFunction,ComponentPad*%
%ADD12RoundRect,0.249999X-0.850001X-0.850001X0.850001X-0.850001X0.850001X0.850001X-0.850001X0.850001X0*%
%TD*%
%TA.AperFunction,ComponentPad*%
%ADD13C,2.200000*%
%TD*%
%TA.AperFunction,ComponentPad*%
%ADD14RoundRect,0.250000X-0.550000X-0.550000X0.550000X-0.550000X0.550000X0.550000X-0.550000X0.550000X0*%
%TD*%
%TA.AperFunction,ComponentPad*%
%ADD15R,1.700000X1.700000*%
%TD*%
%TA.AperFunction,ComponentPad*%
%ADD16C,1.700000*%
%TD*%
%TA.AperFunction,SMDPad,CuDef*%
%ADD17RoundRect,0.150000X-0.587500X-0.150000X0.587500X-0.150000X0.587500X0.150000X-0.587500X0.150000X0*%
%TD*%
%TA.AperFunction,ViaPad*%
%ADD18C,0.600000*%
%TD*%
%TA.AperFunction,Conductor*%
%ADD19C,0.300000*%
%TD*%
%TA.AperFunction,Conductor*%
%ADD20C,0.200000*%
%TD*%
G04 APERTURE END LIST*
D10*
%TO.P,1.7k,1*%
%TO.N,/a*%
X89340000Y-72550000D03*
%TO.P,1.7k,2*%
%TO.N,/b*%
X99500000Y-72550000D03*
%TD*%
%TO.P,3.5k,1*%
%TO.N,VCC*%
X89340000Y-68500000D03*
%TO.P,3.5k,2*%
%TO.N,/a*%
X99500000Y-68500000D03*
%TD*%
D11*
%TO.P,100u,1,1*%
%TO.N,/drain*%
X89500000Y-89500000D03*
%TO.P,100u,2,2*%
%TO.N,Net-(C3-Pad1)*%
X93500000Y-89500000D03*
%TD*%
D12*
%TO.P,1N5817,1,K*%
%TO.N,/drain*%
X103140000Y-72650000D03*
D13*
%TO.P,1N5817,2,A*%
%TO.N,GND*%
X113300000Y-72650000D03*
%TD*%
D14*
%TO.P,NE555,1,GND*%
%TO.N,GND*%
X98195000Y-78190000D03*
D10*
%TO.P,NE555,2,TRIG*%
%TO.N,/b*%
X98195000Y-80730000D03*
%TO.P,NE555,3,OUT*%
%TO.N,/gate*%
X98195000Y-83270000D03*
%TO.P,NE555,4,~{RST}*%
%TO.N,VCC*%
X98195000Y-85810000D03*
%TO.P,NE555,5,CONT*%
%TO.N,/c*%
X105815000Y-85810000D03*
%TO.P,NE555,6,THRES*%
%TO.N,/b*%
X105815000Y-83270000D03*
%TO.P,NE555,7,DISCH*%
%TO.N,/a*%
X105815000Y-80730000D03*
%TO.P,NE555,8,VCC*%
%TO.N,VCC*%
X105815000Y-78190000D03*
%TD*%
D15*
%TO.P,- battery +,1,1*%
%TO.N,VCC*%
X110500000Y-78725000D03*
D16*
%TO.P,- battery +,2,2*%
%TO.N,GND*%
X110500000Y-81265000D03*
%TD*%
D10*
%TO.P,30,1*%
%TO.N,Net-(C3-Pad1)*%
X102840000Y-68500000D03*
%TO.P,30,2*%
%TO.N,GND*%
X113000000Y-68500000D03*
%TD*%
D14*
%TO.P,100u,1*%
%TO.N,Net-(C3-Pad1)*%
X109794888Y-89000000D03*
D10*
%TO.P,100u,2*%
%TO.N,GND*%
X112294888Y-89000000D03*
%TD*%
%TO.P,0.01u,1*%
%TO.N,/b*%
X89500000Y-78450000D03*
%TO.P,0.01u,2*%
%TO.N,GND*%
X94500000Y-78450000D03*
%TD*%
%TO.P,0.01u,1*%
%TO.N,GND*%
X89500000Y-82500000D03*
%TO.P,0.01u,2*%
%TO.N,/c*%
X94500000Y-82500000D03*
%TD*%
D17*
%TO.P,BSS84,1,G*%
%TO.N,/gate*%
X100562500Y-90050000D03*
%TO.P,BSS84,2,S*%
%TO.N,VCC*%
X100562500Y-91950000D03*
%TO.P,BSS84,3,D*%
%TO.N,/drain*%
X102437500Y-91000000D03*
%TD*%
D18*
%TO.N,/b*%
X96000000Y-83500000D03*
%TO.N,/c*%
X95000000Y-85000000D03*
X98000000Y-92000000D03*
%TO.N,/a*%
X95450000Y-72550000D03*
X100000000Y-75500000D03*
X114000000Y-75500000D03*
%TD*%
D19*
%TO.N,VCC*%
X98195000Y-85810000D02*
X105815000Y-78190000D01*
D20*
%TO.N,/b*%
X96000000Y-82925000D02*
X98195000Y-80730000D01*
X96000000Y-83500000D02*
X96000000Y-82925000D01*
%TO.N,/drain*%
X93000000Y-93000000D02*
X89500000Y-89500000D01*
X101459068Y-93000000D02*
X93000000Y-93000000D01*
X102437500Y-91000000D02*
X102437500Y-92021568D01*
X102437500Y-92021568D02*
X101459068Y-93000000D01*
%TO.N,/gate*%
X101601000Y-92290968D02*
X101340968Y-92551000D01*
X99784032Y-92551000D02*
X97094000Y-89860968D01*
X97094000Y-89860968D02*
X97094000Y-84371000D01*
X101601000Y-91609032D02*
X101601000Y-92290968D01*
X100562500Y-90570532D02*
X101601000Y-91609032D01*
X97094000Y-84371000D02*
X98195000Y-83270000D01*
X100562500Y-90050000D02*
X100562500Y-90570532D01*
X101340968Y-92551000D02*
X99784032Y-92551000D01*
%TO.N,/c*%
X95000000Y-89000000D02*
X95000000Y-85000000D01*
X98000000Y-92000000D02*
X95000000Y-89000000D01*
%TO.N,/drain*%
X100181950Y-67399000D02*
X103140000Y-70357050D01*
X87998000Y-68284950D02*
X88883950Y-67399000D01*
X88883950Y-67399000D02*
X100181950Y-67399000D01*
X87998000Y-87998000D02*
X87998000Y-68284950D01*
X89500000Y-89500000D02*
X87998000Y-87998000D01*
X103140000Y-70357050D02*
X103140000Y-72650000D01*
%TO.N,/a*%
X95450000Y-72550000D02*
X95550000Y-72550000D01*
X95550000Y-72550000D02*
X98500000Y-75500000D01*
X100000000Y-75500000D02*
X98500000Y-75500000D01*
X114500000Y-76000000D02*
X114000000Y-75500000D01*
X114500000Y-79000000D02*
X114500000Y-76000000D01*
X111084000Y-82416000D02*
X114500000Y-79000000D01*
X107501000Y-82416000D02*
X111084000Y-82416000D01*
X105815000Y-80730000D02*
X107501000Y-82416000D01*
D19*
%TO.N,GND*%
X113300000Y-72650000D02*
X113300000Y-78465000D01*
X113300000Y-78465000D02*
X110500000Y-81265000D01*
X113300000Y-68800000D02*
X113000000Y-68500000D01*
X113300000Y-72650000D02*
X113300000Y-68800000D01*
X93550000Y-78450000D02*
X94500000Y-78450000D01*
X89500000Y-82500000D02*
X93550000Y-78450000D01*
X94500000Y-78450000D02*
X97935000Y-78450000D01*
%TO.N,VCC*%
X98195000Y-89582500D02*
X100562500Y-91950000D01*
X98195000Y-85810000D02*
X98195000Y-89582500D01*
X106350000Y-78725000D02*
X105815000Y-78190000D01*
X110500000Y-78725000D02*
X106350000Y-78725000D01*
%TD*%
%TA.AperFunction,Conductor*%
%TO.N,GND*%
G36*
X115442539Y-65520185D02*
G01*
X115488294Y-65572989D01*
X115499500Y-65624500D01*
X115499500Y-93375500D01*
X115479815Y-93442539D01*
X115427011Y-93488294D01*
X115375500Y-93499500D01*
X102108164Y-93499500D01*
X102041125Y-93479815D01*
X101995370Y-93427011D01*
X101985426Y-93357853D01*
X102014451Y-93294297D01*
X102020483Y-93287819D01*
X102918020Y-92390284D01*
X102997077Y-92253353D01*
X103038001Y-92100625D01*
X103038001Y-91942510D01*
X103038001Y-91934915D01*
X103038000Y-91934897D01*
X103038000Y-91916722D01*
X103057685Y-91849683D01*
X103110489Y-91803928D01*
X103127405Y-91797646D01*
X103196644Y-91777529D01*
X103285398Y-91751744D01*
X103426865Y-91668081D01*
X103543081Y-91551865D01*
X103626744Y-91410398D01*
X103672598Y-91252569D01*
X103675500Y-91215694D01*
X103675500Y-90784306D01*
X103672598Y-90747431D01*
X103626744Y-90589602D01*
X103543081Y-90448135D01*
X103543079Y-90448133D01*
X103543076Y-90448129D01*
X103426870Y-90331923D01*
X103426862Y-90331917D01*
X103348681Y-90285681D01*
X103285398Y-90248256D01*
X103285397Y-90248255D01*
X103285396Y-90248255D01*
X103285393Y-90248254D01*
X103127573Y-90202402D01*
X103127567Y-90202401D01*
X103090701Y-90199500D01*
X103090694Y-90199500D01*
X101924500Y-90199500D01*
X101857461Y-90179815D01*
X101811706Y-90127011D01*
X101800500Y-90075500D01*
X101800500Y-89834313D01*
X101800499Y-89834298D01*
X101799221Y-89818063D01*
X101797598Y-89797431D01*
X101795744Y-89791050D01*
X101751745Y-89639606D01*
X101751744Y-89639603D01*
X101751744Y-89639602D01*
X101668081Y-89498135D01*
X101668079Y-89498133D01*
X101668076Y-89498129D01*
X101551870Y-89381923D01*
X101551862Y-89381917D01*
X101473681Y-89335681D01*
X101410398Y-89298256D01*
X101410397Y-89298255D01*
X101410396Y-89298255D01*
X101410393Y-89298254D01*
X101252573Y-89252402D01*
X101252567Y-89252401D01*
X101215701Y-89249500D01*
X101215694Y-89249500D01*
X99909306Y-89249500D01*
X99909298Y-89249500D01*
X99872432Y-89252401D01*
X99872426Y-89252402D01*
X99714606Y-89298254D01*
X99714603Y-89298255D01*
X99573137Y-89381917D01*
X99573129Y-89381923D01*
X99456923Y-89498129D01*
X99456919Y-89498135D01*
X99379857Y-89628439D01*
X99328787Y-89676122D01*
X99260046Y-89688625D01*
X99195456Y-89661979D01*
X99185444Y-89652998D01*
X98881819Y-89349373D01*
X98848334Y-89288050D01*
X98845500Y-89261692D01*
X98845500Y-88399983D01*
X108494388Y-88399983D01*
X108494388Y-89600001D01*
X108494389Y-89600018D01*
X108504888Y-89702796D01*
X108504889Y-89702799D01*
X108536248Y-89797432D01*
X108560074Y-89869334D01*
X108652176Y-90018656D01*
X108776232Y-90142712D01*
X108925554Y-90234814D01*
X109092091Y-90289999D01*
X109194879Y-90300500D01*
X110394896Y-90300499D01*
X110497685Y-90289999D01*
X110664222Y-90234814D01*
X110813544Y-90142712D01*
X110937600Y-90018656D01*
X111029702Y-89869334D01*
X111052990Y-89799054D01*
X111056998Y-89791050D01*
X111074948Y-89771772D01*
X111089943Y-89750116D01*
X111098383Y-89746606D01*
X111104613Y-89739917D01*
X111130137Y-89733404D01*
X111154459Y-89723292D01*
X111170722Y-89723048D01*
X111172313Y-89722643D01*
X111173411Y-89723008D01*
X111177607Y-89722946D01*
X111215413Y-89725921D01*
X111894888Y-89046446D01*
X111894888Y-89052661D01*
X111922147Y-89154394D01*
X111974808Y-89245606D01*
X112049282Y-89320080D01*
X112140494Y-89372741D01*
X112242227Y-89400000D01*
X112248441Y-89400000D01*
X111568964Y-90079474D01*
X111613538Y-90111859D01*
X111795856Y-90204755D01*
X111990470Y-90267990D01*
X112192571Y-90300000D01*
X112397205Y-90300000D01*
X112599305Y-90267990D01*
X112793919Y-90204755D01*
X112976237Y-90111859D01*
X113020809Y-90079474D01*
X112341335Y-89400000D01*
X112347549Y-89400000D01*
X112449282Y-89372741D01*
X112540494Y-89320080D01*
X112614968Y-89245606D01*
X112667629Y-89154394D01*
X112694888Y-89052661D01*
X112694888Y-89046447D01*
X113374362Y-89725921D01*
X113406747Y-89681349D01*
X113499643Y-89499031D01*
X113562878Y-89304417D01*
X113594888Y-89102317D01*
X113594888Y-88897682D01*
X113562878Y-88695582D01*
X113499643Y-88500968D01*
X113406747Y-88318650D01*
X113374362Y-88274077D01*
X113374362Y-88274076D01*
X112694888Y-88953551D01*
X112694888Y-88947339D01*
X112667629Y-88845606D01*
X112614968Y-88754394D01*
X112540494Y-88679920D01*
X112449282Y-88627259D01*
X112347549Y-88600000D01*
X112341334Y-88600000D01*
X113020810Y-87920524D01*
X113020809Y-87920523D01*
X112976247Y-87888147D01*
X112976238Y-87888141D01*
X112793919Y-87795244D01*
X112599305Y-87732009D01*
X112397205Y-87700000D01*
X112192571Y-87700000D01*
X111990470Y-87732009D01*
X111795856Y-87795244D01*
X111613532Y-87888143D01*
X111568965Y-87920523D01*
X111568965Y-87920524D01*
X112248442Y-88600000D01*
X112242227Y-88600000D01*
X112140494Y-88627259D01*
X112049282Y-88679920D01*
X111974808Y-88754394D01*
X111922147Y-88845606D01*
X111894888Y-88947339D01*
X111894888Y-88953553D01*
X111215412Y-88274077D01*
X111177607Y-88277053D01*
X111109229Y-88262689D01*
X111059472Y-88213638D01*
X111056998Y-88208949D01*
X111052989Y-88200942D01*
X111029702Y-88130666D01*
X110937600Y-87981344D01*
X110813544Y-87857288D01*
X110664222Y-87765186D01*
X110497685Y-87710001D01*
X110497683Y-87710000D01*
X110394898Y-87699500D01*
X109194886Y-87699500D01*
X109194869Y-87699501D01*
X109092091Y-87710000D01*
X109092088Y-87710001D01*
X108925556Y-87765185D01*
X108925551Y-87765187D01*
X108776230Y-87857289D01*
X108652177Y-87981342D01*
X108560075Y-88130663D01*
X108560074Y-88130666D01*
X108504889Y-88297203D01*
X108504889Y-88297204D01*
X108504888Y-88297204D01*
X108494388Y-88399983D01*
X98845500Y-88399983D01*
X98845500Y-87008070D01*
X98865185Y-86941031D01*
X98896613Y-86907753D01*
X99042219Y-86801966D01*
X99186966Y-86657219D01*
X99186968Y-86657215D01*
X99186971Y-86657213D01*
X99239732Y-86584590D01*
X99307287Y-86491610D01*
X99400220Y-86309219D01*
X99463477Y-86114534D01*
X99495500Y-85912352D01*
X99495500Y-85707648D01*
X99467345Y-85529886D01*
X99476300Y-85460593D01*
X99502134Y-85422810D01*
X104302819Y-80622126D01*
X104364142Y-80588641D01*
X104433834Y-80593625D01*
X104489767Y-80635497D01*
X104514184Y-80700961D01*
X104514500Y-80709807D01*
X104514500Y-80832351D01*
X104546522Y-81034534D01*
X104609781Y-81229223D01*
X104643421Y-81295244D01*
X104690755Y-81388142D01*
X104702715Y-81411613D01*
X104823028Y-81577213D01*
X104967786Y-81721971D01*
X105100493Y-81818386D01*
X105133390Y-81842287D01*
X105224840Y-81888883D01*
X105226080Y-81889515D01*
X105276876Y-81937490D01*
X105293671Y-82005311D01*
X105271134Y-82071446D01*
X105226080Y-82110485D01*
X105133386Y-82157715D01*
X104967786Y-82278028D01*
X104823028Y-82422786D01*
X104702715Y-82588386D01*
X104609781Y-82770776D01*
X104546522Y-82965465D01*
X104514500Y-83167648D01*
X104514500Y-83372351D01*
X104546522Y-83574534D01*
X104609781Y-83769223D01*
X104702715Y-83951613D01*
X104823028Y-84117213D01*
X104967786Y-84261971D01*
X105085673Y-84347619D01*
X105133390Y-84382287D01*
X105224840Y-84428883D01*
X105226080Y-84429515D01*
X105276876Y-84477490D01*
X105293671Y-84545311D01*
X105271134Y-84611446D01*
X105226080Y-84650485D01*
X105133386Y-84697715D01*
X104967786Y-84818028D01*
X104823028Y-84962786D01*
X104702715Y-85128386D01*
X104609781Y-85310776D01*
X104546522Y-85505465D01*
X104514500Y-85707648D01*
X104514500Y-85912351D01*
X104546522Y-86114534D01*
X104609781Y-86309223D01*
X104702715Y-86491613D01*
X104823028Y-86657213D01*
X104967786Y-86801971D01*
X105113383Y-86907751D01*
X105133390Y-86922287D01*
X105249607Y-86981503D01*
X105315776Y-87015218D01*
X105315778Y-87015218D01*
X105315781Y-87015220D01*
X105420137Y-87049127D01*
X105510465Y-87078477D01*
X105611557Y-87094488D01*
X105712648Y-87110500D01*
X105712649Y-87110500D01*
X105917351Y-87110500D01*
X105917352Y-87110500D01*
X106119534Y-87078477D01*
X106314219Y-87015220D01*
X106496610Y-86922287D01*
X106589590Y-86854732D01*
X106662213Y-86801971D01*
X106662215Y-86801968D01*
X106662219Y-86801966D01*
X106806966Y-86657219D01*
X106806968Y-86657215D01*
X106806971Y-86657213D01*
X106859732Y-86584590D01*
X106927287Y-86491610D01*
X107020220Y-86309219D01*
X107083477Y-86114534D01*
X107115500Y-85912352D01*
X107115500Y-85707648D01*
X107083477Y-85505466D01*
X107020220Y-85310781D01*
X107020218Y-85310778D01*
X107020218Y-85310776D01*
X106980838Y-85233489D01*
X106927287Y-85128390D01*
X106919556Y-85117749D01*
X106806971Y-84962786D01*
X106662213Y-84818028D01*
X106496614Y-84697715D01*
X106490006Y-84694348D01*
X106403917Y-84650483D01*
X106353123Y-84602511D01*
X106336328Y-84534690D01*
X106358865Y-84468555D01*
X106403917Y-84429516D01*
X106496610Y-84382287D01*
X106544327Y-84347619D01*
X106662213Y-84261971D01*
X106662215Y-84261968D01*
X106662219Y-84261966D01*
X106806966Y-84117219D01*
X106806968Y-84117215D01*
X106806971Y-84117213D01*
X106884652Y-84010292D01*
X106927287Y-83951610D01*
X107020220Y-83769219D01*
X107083477Y-83574534D01*
X107115500Y-83372352D01*
X107115500Y-83167648D01*
X107106787Y-83112639D01*
X107115741Y-83043349D01*
X107160737Y-82989896D01*
X107227488Y-82969256D01*
X107260636Y-82976188D01*
X107261364Y-82973473D01*
X107269213Y-82975576D01*
X107269215Y-82975577D01*
X107421943Y-83016500D01*
X107580057Y-83016500D01*
X110997331Y-83016500D01*
X110997347Y-83016501D01*
X111004943Y-83016501D01*
X111163054Y-83016501D01*
X111163057Y-83016501D01*
X111315785Y-82975577D01*
X111400707Y-82926547D01*
X111452716Y-82896520D01*
X111564520Y-82784716D01*
X111564520Y-82784714D01*
X111574724Y-82774511D01*
X111574727Y-82774506D01*
X114980520Y-79368716D01*
X115059577Y-79231784D01*
X115100501Y-79079057D01*
X115100501Y-78920942D01*
X115100501Y-78913347D01*
X115100500Y-78913329D01*
X115100500Y-76089060D01*
X115100501Y-76089047D01*
X115100501Y-75920944D01*
X115100501Y-75920943D01*
X115059577Y-75768216D01*
X115059573Y-75768209D01*
X114980524Y-75631290D01*
X114980518Y-75631282D01*
X114834573Y-75485337D01*
X114801088Y-75424014D01*
X114800637Y-75421847D01*
X114769738Y-75266510D01*
X114769737Y-75266503D01*
X114769735Y-75266498D01*
X114709397Y-75120827D01*
X114709390Y-75120814D01*
X114621789Y-74989711D01*
X114621786Y-74989707D01*
X114510292Y-74878213D01*
X114510288Y-74878210D01*
X114379185Y-74790609D01*
X114379172Y-74790602D01*
X114233501Y-74730264D01*
X114233489Y-74730261D01*
X114078845Y-74699500D01*
X114078842Y-74699500D01*
X113921158Y-74699500D01*
X113921155Y-74699500D01*
X113766510Y-74730261D01*
X113766498Y-74730264D01*
X113620827Y-74790602D01*
X113620814Y-74790609D01*
X113489711Y-74878210D01*
X113489707Y-74878213D01*
X113378213Y-74989707D01*
X113378210Y-74989711D01*
X113290609Y-75120814D01*
X113290602Y-75120827D01*
X113230264Y-75266498D01*
X113230261Y-75266510D01*
X113199500Y-75421153D01*
X113199500Y-75578846D01*
X113230261Y-75733489D01*
X113230264Y-75733501D01*
X113290602Y-75879172D01*
X113290609Y-75879185D01*
X113378210Y-76010288D01*
X113378213Y-76010292D01*
X113489707Y-76121786D01*
X113489711Y-76121789D01*
X113620814Y-76209390D01*
X113620827Y-76209397D01*
X113708230Y-76245599D01*
X113766503Y-76269737D01*
X113799691Y-76276338D01*
X113861600Y-76308721D01*
X113896176Y-76369436D01*
X113899500Y-76397955D01*
X113899500Y-78699902D01*
X113879815Y-78766941D01*
X113863181Y-78787583D01*
X111923383Y-80727380D01*
X111862060Y-80760865D01*
X111792368Y-80755881D01*
X111736435Y-80714009D01*
X111725217Y-80695994D01*
X111654624Y-80557449D01*
X111615270Y-80503282D01*
X111615269Y-80503282D01*
X110982962Y-81135589D01*
X110965925Y-81072007D01*
X110900099Y-80957993D01*
X110807007Y-80864901D01*
X110692993Y-80799075D01*
X110629409Y-80782037D01*
X111299627Y-80111818D01*
X111360950Y-80078333D01*
X111387307Y-80075499D01*
X111397872Y-80075499D01*
X111457483Y-80069091D01*
X111592331Y-80018796D01*
X111707546Y-79932546D01*
X111793796Y-79817331D01*
X111844091Y-79682483D01*
X111850500Y-79622873D01*
X111850499Y-77827128D01*
X111844185Y-77768390D01*
X111844091Y-77767516D01*
X111793797Y-77632671D01*
X111793793Y-77632664D01*
X111707547Y-77517455D01*
X111707544Y-77517452D01*
X111592335Y-77431206D01*
X111592328Y-77431202D01*
X111457482Y-77380908D01*
X111457483Y-77380908D01*
X111397883Y-77374501D01*
X111397881Y-77374500D01*
X111397873Y-77374500D01*
X111397864Y-77374500D01*
X109602129Y-77374500D01*
X109602123Y-77374501D01*
X109542516Y-77380908D01*
X109407671Y-77431202D01*
X109407664Y-77431206D01*
X109292455Y-77517452D01*
X109292452Y-77517455D01*
X109206206Y-77632664D01*
X109206202Y-77632671D01*
X109155908Y-77767517D01*
X109150561Y-77817259D01*
X109149501Y-77827123D01*
X109149500Y-77827135D01*
X109149500Y-77950500D01*
X109129815Y-78017539D01*
X109077011Y-78063294D01*
X109025500Y-78074500D01*
X107219323Y-78074500D01*
X107152284Y-78054815D01*
X107106529Y-78002011D01*
X107096850Y-77969898D01*
X107093821Y-77950776D01*
X107083477Y-77885466D01*
X107020220Y-77690781D01*
X106927287Y-77508390D01*
X106890702Y-77458034D01*
X106806971Y-77342786D01*
X106662213Y-77198028D01*
X106496613Y-77077715D01*
X106496612Y-77077714D01*
X106496610Y-77077713D01*
X106437675Y-77047684D01*
X106314223Y-76984781D01*
X106119534Y-76921522D01*
X105944995Y-76893878D01*
X105917352Y-76889500D01*
X105712648Y-76889500D01*
X105688329Y-76893351D01*
X105510465Y-76921522D01*
X105315776Y-76984781D01*
X105133386Y-77077715D01*
X104967786Y-77198028D01*
X104823028Y-77342786D01*
X104702715Y-77508386D01*
X104609781Y-77690776D01*
X104546522Y-77885465D01*
X104520463Y-78050000D01*
X104514500Y-78087648D01*
X104514500Y-78292352D01*
X104519609Y-78324611D01*
X104542654Y-78470111D01*
X104533699Y-78539405D01*
X104507862Y-78577190D01*
X99707181Y-83377872D01*
X99645858Y-83411357D01*
X99576166Y-83406373D01*
X99520233Y-83364501D01*
X99495816Y-83299037D01*
X99495500Y-83290191D01*
X99495500Y-83167648D01*
X99463477Y-82965465D01*
X99411149Y-82804417D01*
X99400220Y-82770781D01*
X99400218Y-82770778D01*
X99400218Y-82770776D01*
X99365752Y-82703134D01*
X99307287Y-82588390D01*
X99281329Y-82552661D01*
X99186971Y-82422786D01*
X99042213Y-82278028D01*
X98876614Y-82157715D01*
X98870006Y-82154348D01*
X98783917Y-82110483D01*
X98733123Y-82062511D01*
X98716328Y-81994690D01*
X98738865Y-81928555D01*
X98783917Y-81889516D01*
X98876610Y-81842287D01*
X98909507Y-81818386D01*
X99042213Y-81721971D01*
X99042215Y-81721968D01*
X99042219Y-81721966D01*
X99186966Y-81577219D01*
X99186968Y-81577215D01*
X99186971Y-81577213D01*
X99273588Y-81457993D01*
X99307287Y-81411610D01*
X99400220Y-81229219D01*
X99463477Y-81034534D01*
X99495500Y-80832352D01*
X99495500Y-80627648D01*
X99463477Y-80425466D01*
X99400220Y-80230781D01*
X99400218Y-80230778D01*
X99400218Y-80230776D01*
X99331127Y-80095179D01*
X99307287Y-80048390D01*
X99285784Y-80018793D01*
X99186971Y-79882786D01*
X99042217Y-79738032D01*
X99042212Y-79738028D01*
X98948051Y-79669616D01*
X98905385Y-79614286D01*
X98899406Y-79544673D01*
X98932012Y-79482878D01*
X98981933Y-79451592D01*
X99064117Y-79424359D01*
X99064124Y-79424356D01*
X99213345Y-79332315D01*
X99337315Y-79208345D01*
X99429356Y-79059124D01*
X99429358Y-79059119D01*
X99484505Y-78892697D01*
X99484506Y-78892690D01*
X99494999Y-78789986D01*
X99495000Y-78789973D01*
X99495000Y-78440000D01*
X98510686Y-78440000D01*
X98515080Y-78435606D01*
X98567741Y-78344394D01*
X98595000Y-78242661D01*
X98595000Y-78137339D01*
X98567741Y-78035606D01*
X98515080Y-77944394D01*
X98510686Y-77940000D01*
X99494999Y-77940000D01*
X99494999Y-77590028D01*
X99494998Y-77590013D01*
X99484505Y-77487302D01*
X99429358Y-77320880D01*
X99429356Y-77320875D01*
X99337315Y-77171654D01*
X99213345Y-77047684D01*
X99064124Y-76955643D01*
X99064119Y-76955641D01*
X98897697Y-76900494D01*
X98897690Y-76900493D01*
X98794986Y-76890000D01*
X98445000Y-76890000D01*
X98445000Y-77874314D01*
X98440606Y-77869920D01*
X98349394Y-77817259D01*
X98247661Y-77790000D01*
X98142339Y-77790000D01*
X98040606Y-77817259D01*
X97949394Y-77869920D01*
X97945000Y-77874314D01*
X97945000Y-76890000D01*
X97595028Y-76890000D01*
X97595012Y-76890001D01*
X97492302Y-76900494D01*
X97325880Y-76955641D01*
X97325875Y-76955643D01*
X97176654Y-77047684D01*
X97052684Y-77171654D01*
X96960643Y-77320875D01*
X96960641Y-77320880D01*
X96905494Y-77487302D01*
X96905493Y-77487309D01*
X96895000Y-77590013D01*
X96895000Y-77940000D01*
X97879314Y-77940000D01*
X97874920Y-77944394D01*
X97822259Y-78035606D01*
X97795000Y-78137339D01*
X97795000Y-78242661D01*
X97822259Y-78344394D01*
X97874920Y-78435606D01*
X97879314Y-78440000D01*
X96895001Y-78440000D01*
X96895001Y-78789986D01*
X96905494Y-78892697D01*
X96960641Y-79059119D01*
X96960643Y-79059124D01*
X97052684Y-79208345D01*
X97176654Y-79332315D01*
X97325875Y-79424356D01*
X97325882Y-79424359D01*
X97408067Y-79451592D01*
X97465512Y-79491364D01*
X97492336Y-79555880D01*
X97480021Y-79624656D01*
X97441949Y-79669616D01*
X97347787Y-79738028D01*
X97347782Y-79738032D01*
X97203028Y-79882786D01*
X97082715Y-80048386D01*
X96989781Y-80230776D01*
X96926522Y-80425465D01*
X96894500Y-80627648D01*
X96894500Y-80832351D01*
X96926523Y-81034535D01*
X96931172Y-81048845D01*
X96933165Y-81118687D01*
X96900921Y-81174841D01*
X95938982Y-82136781D01*
X95877659Y-82170266D01*
X95807968Y-82165282D01*
X95752034Y-82123410D01*
X95733370Y-82087418D01*
X95728180Y-82071446D01*
X95705220Y-82000781D01*
X95612287Y-81818390D01*
X95604556Y-81807749D01*
X95491971Y-81652786D01*
X95347213Y-81508028D01*
X95181613Y-81387715D01*
X95181612Y-81387714D01*
X95181610Y-81387713D01*
X95115631Y-81354095D01*
X94999223Y-81294781D01*
X94804534Y-81231522D01*
X94629995Y-81203878D01*
X94602352Y-81199500D01*
X94397648Y-81199500D01*
X94373329Y-81203351D01*
X94195465Y-81231522D01*
X94000776Y-81294781D01*
X93818386Y-81387715D01*
X93652786Y-81508028D01*
X93508028Y-81652786D01*
X93387715Y-81818386D01*
X93294781Y-82000776D01*
X93231522Y-82195465D01*
X93199500Y-82397648D01*
X93199500Y-82602351D01*
X93231522Y-82804534D01*
X93294781Y-82999223D01*
X93387715Y-83181613D01*
X93508028Y-83347213D01*
X93652786Y-83491971D01*
X93794538Y-83594958D01*
X93818390Y-83612287D01*
X93934607Y-83671503D01*
X94000776Y-83705218D01*
X94000778Y-83705218D01*
X94000781Y-83705220D01*
X94087809Y-83733497D01*
X94195465Y-83768477D01*
X94296557Y-83784488D01*
X94397648Y-83800500D01*
X94397649Y-83800500D01*
X94602351Y-83800500D01*
X94602352Y-83800500D01*
X94804534Y-83768477D01*
X94999219Y-83705220D01*
X95060804Y-83673841D01*
X95129474Y-83660944D01*
X95194214Y-83687220D01*
X95231661Y-83736873D01*
X95290602Y-83879172D01*
X95290609Y-83879185D01*
X95378210Y-84010288D01*
X95378213Y-84010292D01*
X95415253Y-84047332D01*
X95448738Y-84108655D01*
X95443754Y-84178347D01*
X95401882Y-84234280D01*
X95336418Y-84258697D01*
X95280121Y-84249575D01*
X95233497Y-84230263D01*
X95233492Y-84230262D01*
X95233489Y-84230261D01*
X95078845Y-84199500D01*
X95078842Y-84199500D01*
X94921158Y-84199500D01*
X94921155Y-84199500D01*
X94766510Y-84230261D01*
X94766498Y-84230264D01*
X94620827Y-84290602D01*
X94620814Y-84290609D01*
X94489711Y-84378210D01*
X94489707Y-84378213D01*
X94378213Y-84489707D01*
X94378210Y-84489711D01*
X94290609Y-84620814D01*
X94290602Y-84620827D01*
X94230264Y-84766498D01*
X94230261Y-84766510D01*
X94199500Y-84921153D01*
X94199500Y-85078846D01*
X94230261Y-85233489D01*
X94230264Y-85233501D01*
X94290602Y-85379172D01*
X94290609Y-85379185D01*
X94378602Y-85510874D01*
X94399480Y-85577551D01*
X94399500Y-85579765D01*
X94399500Y-88071917D01*
X94379815Y-88138956D01*
X94327011Y-88184711D01*
X94257853Y-88194655D01*
X94219205Y-88182402D01*
X94075996Y-88109434D01*
X94075995Y-88109433D01*
X94075992Y-88109432D01*
X93977562Y-88077450D01*
X93851368Y-88036446D01*
X93618097Y-87999500D01*
X93618092Y-87999500D01*
X93381908Y-87999500D01*
X93381903Y-87999500D01*
X93148631Y-88036446D01*
X92924003Y-88109433D01*
X92713566Y-88216657D01*
X92634535Y-88274077D01*
X92522490Y-88355483D01*
X92522488Y-88355485D01*
X92522487Y-88355485D01*
X92355485Y-88522487D01*
X92355485Y-88522488D01*
X92355483Y-88522490D01*
X92331584Y-88555384D01*
X92216657Y-88713566D01*
X92109433Y-88924003D01*
X92036446Y-89148631D01*
X91999500Y-89381902D01*
X91999500Y-89618097D01*
X92036446Y-89851368D01*
X92109433Y-90075996D01*
X92173841Y-90202402D01*
X92216657Y-90286433D01*
X92355483Y-90477510D01*
X92522490Y-90644517D01*
X92713567Y-90783343D01*
X92812991Y-90834002D01*
X92924003Y-90890566D01*
X92924005Y-90890566D01*
X92924008Y-90890568D01*
X93016292Y-90920553D01*
X93148631Y-90963553D01*
X93381903Y-91000500D01*
X93381908Y-91000500D01*
X93618097Y-91000500D01*
X93851368Y-90963553D01*
X93884468Y-90952798D01*
X94075992Y-90890568D01*
X94286433Y-90783343D01*
X94477510Y-90644517D01*
X94644517Y-90477510D01*
X94783343Y-90286433D01*
X94890568Y-90075992D01*
X94910485Y-90014693D01*
X94949921Y-89957020D01*
X95014280Y-89929821D01*
X95083126Y-89941735D01*
X95116096Y-89965332D01*
X97165425Y-92014660D01*
X97174284Y-92030885D01*
X97187216Y-92044101D01*
X97197982Y-92074284D01*
X97198910Y-92075983D01*
X97199190Y-92077302D01*
X97199500Y-92078805D01*
X97199500Y-92078842D01*
X97230263Y-92233497D01*
X97232513Y-92238930D01*
X97234891Y-92250461D01*
X97232954Y-92273940D01*
X97235503Y-92297359D01*
X97230136Y-92308113D01*
X97229149Y-92320094D01*
X97214825Y-92338799D01*
X97204309Y-92359878D01*
X97193980Y-92366024D01*
X97186672Y-92375569D01*
X97164508Y-92383562D01*
X97144266Y-92395608D01*
X97124018Y-92398164D01*
X97120946Y-92399273D01*
X97118918Y-92398808D01*
X97113445Y-92399500D01*
X93300097Y-92399500D01*
X93233058Y-92379815D01*
X93212416Y-92363181D01*
X90952798Y-90103563D01*
X90919313Y-90042240D01*
X90922547Y-89977566D01*
X90963553Y-89851368D01*
X90991309Y-89676122D01*
X91000500Y-89618097D01*
X91000500Y-89381902D01*
X90963553Y-89148631D01*
X90901534Y-88957758D01*
X90890568Y-88924008D01*
X90890566Y-88924005D01*
X90890566Y-88924003D01*
X90804145Y-88754394D01*
X90783343Y-88713567D01*
X90644517Y-88522490D01*
X90477510Y-88355483D01*
X90286433Y-88216657D01*
X90243252Y-88194655D01*
X90075996Y-88109433D01*
X89851368Y-88036446D01*
X89618097Y-87999500D01*
X89618092Y-87999500D01*
X89381908Y-87999500D01*
X89381903Y-87999500D01*
X89148628Y-88036447D01*
X89022433Y-88077450D01*
X88952592Y-88079445D01*
X88896435Y-88047200D01*
X88769759Y-87920524D01*
X88634819Y-87785583D01*
X88601334Y-87724260D01*
X88598500Y-87697902D01*
X88598500Y-83695274D01*
X88618185Y-83628235D01*
X88670989Y-83582480D01*
X88740147Y-83572536D01*
X88795388Y-83594958D01*
X88818648Y-83611858D01*
X89000968Y-83704755D01*
X89195582Y-83767990D01*
X89397683Y-83800000D01*
X89602317Y-83800000D01*
X89804417Y-83767990D01*
X89999031Y-83704755D01*
X90181349Y-83611859D01*
X90225921Y-83579474D01*
X89546447Y-82900000D01*
X89552661Y-82900000D01*
X89654394Y-82872741D01*
X89745606Y-82820080D01*
X89820080Y-82745606D01*
X89872741Y-82654394D01*
X89900000Y-82552661D01*
X89900000Y-82546447D01*
X90579474Y-83225921D01*
X90611859Y-83181349D01*
X90704755Y-82999031D01*
X90767990Y-82804417D01*
X90800000Y-82602317D01*
X90800000Y-82397682D01*
X90767990Y-82195582D01*
X90704755Y-82000968D01*
X90611859Y-81818650D01*
X90579474Y-81774077D01*
X90579474Y-81774076D01*
X89900000Y-82453551D01*
X89900000Y-82447339D01*
X89872741Y-82345606D01*
X89820080Y-82254394D01*
X89745606Y-82179920D01*
X89654394Y-82127259D01*
X89552661Y-82100000D01*
X89546446Y-82100000D01*
X90225922Y-81420524D01*
X90225921Y-81420523D01*
X90181359Y-81388147D01*
X90181350Y-81388141D01*
X89999031Y-81295244D01*
X89804417Y-81232009D01*
X89602317Y-81200000D01*
X89397683Y-81200000D01*
X89195582Y-81232009D01*
X89000968Y-81295244D01*
X88818647Y-81388142D01*
X88795385Y-81405043D01*
X88729579Y-81428523D01*
X88661525Y-81412697D01*
X88612830Y-81362592D01*
X88598500Y-81304725D01*
X88598500Y-79645891D01*
X88618185Y-79578852D01*
X88670989Y-79533097D01*
X88740147Y-79523153D01*
X88795385Y-79545573D01*
X88807202Y-79554158D01*
X88818388Y-79562286D01*
X89000776Y-79655218D01*
X89000778Y-79655218D01*
X89000781Y-79655220D01*
X89084685Y-79682482D01*
X89195465Y-79718477D01*
X89296557Y-79734488D01*
X89397648Y-79750500D01*
X89397649Y-79750500D01*
X89602351Y-79750500D01*
X89602352Y-79750500D01*
X89804534Y-79718477D01*
X89999219Y-79655220D01*
X90181610Y-79562287D01*
X90320301Y-79461523D01*
X90347213Y-79441971D01*
X90347215Y-79441968D01*
X90347219Y-79441966D01*
X90491966Y-79297219D01*
X90491968Y-79297215D01*
X90491971Y-79297213D01*
X90556536Y-79208345D01*
X90612287Y-79131610D01*
X90705220Y-78949219D01*
X90768477Y-78754534D01*
X90800500Y-78552352D01*
X90800500Y-78347682D01*
X93200000Y-78347682D01*
X93200000Y-78552317D01*
X93232009Y-78754417D01*
X93295244Y-78949031D01*
X93388141Y-79131350D01*
X93388147Y-79131359D01*
X93420523Y-79175921D01*
X93420524Y-79175922D01*
X94100000Y-78496446D01*
X94100000Y-78502661D01*
X94127259Y-78604394D01*
X94179920Y-78695606D01*
X94254394Y-78770080D01*
X94345606Y-78822741D01*
X94447339Y-78850000D01*
X94453553Y-78850000D01*
X93774076Y-79529474D01*
X93818650Y-79561859D01*
X94000968Y-79654755D01*
X94195582Y-79717990D01*
X94397683Y-79750000D01*
X94602317Y-79750000D01*
X94804417Y-79717990D01*
X94999031Y-79654755D01*
X95181349Y-79561859D01*
X95225921Y-79529474D01*
X94546447Y-78850000D01*
X94552661Y-78850000D01*
X94654394Y-78822741D01*
X94745606Y-78770080D01*
X94820080Y-78695606D01*
X94872741Y-78604394D01*
X94900000Y-78502661D01*
X94900000Y-78496447D01*
X95579474Y-79175921D01*
X95611859Y-79131349D01*
X95704755Y-78949031D01*
X95767990Y-78754417D01*
X95800000Y-78552317D01*
X95800000Y-78347682D01*
X95767990Y-78145582D01*
X95704755Y-77950968D01*
X95611859Y-77768650D01*
X95579474Y-77724077D01*
X95579474Y-77724076D01*
X94900000Y-78403551D01*
X94900000Y-78397339D01*
X94872741Y-78295606D01*
X94820080Y-78204394D01*
X94745606Y-78129920D01*
X94654394Y-78077259D01*
X94552661Y-78050000D01*
X94546446Y-78050000D01*
X95097264Y-77499183D01*
X95225922Y-77370524D01*
X95225921Y-77370523D01*
X95181359Y-77338147D01*
X95181350Y-77338141D01*
X94999031Y-77245244D01*
X94804417Y-77182009D01*
X94602317Y-77150000D01*
X94397683Y-77150000D01*
X94195582Y-77182009D01*
X94000968Y-77245244D01*
X93818644Y-77338143D01*
X93774077Y-77370523D01*
X93774077Y-77370524D01*
X94453554Y-78050000D01*
X94447339Y-78050000D01*
X94345606Y-78077259D01*
X94254394Y-78129920D01*
X94179920Y-78204394D01*
X94127259Y-78295606D01*
X94100000Y-78397339D01*
X94100000Y-78403553D01*
X93420524Y-77724077D01*
X93420523Y-77724077D01*
X93388143Y-77768644D01*
X93295244Y-77950968D01*
X93232009Y-78145582D01*
X93200000Y-78347682D01*
X90800500Y-78347682D01*
X90800500Y-78347648D01*
X90791742Y-78292351D01*
X90768477Y-78145465D01*
X90726911Y-78017539D01*
X90705220Y-77950781D01*
X90705218Y-77950778D01*
X90705218Y-77950776D01*
X90642216Y-77827129D01*
X90612287Y-77768390D01*
X90580092Y-77724077D01*
X90491971Y-77602786D01*
X90347213Y-77458028D01*
X90181613Y-77337715D01*
X90181612Y-77337714D01*
X90181610Y-77337713D01*
X90124653Y-77308691D01*
X89999223Y-77244781D01*
X89804534Y-77181522D01*
X89629995Y-77153878D01*
X89602352Y-77149500D01*
X89397648Y-77149500D01*
X89373329Y-77153351D01*
X89195465Y-77181522D01*
X89000776Y-77244781D01*
X88818387Y-77337714D01*
X88795384Y-77354427D01*
X88729578Y-77377906D01*
X88661524Y-77362080D01*
X88612830Y-77311974D01*
X88598500Y-77254108D01*
X88598500Y-73834121D01*
X88618185Y-73767082D01*
X88670989Y-73721327D01*
X88740147Y-73711383D01*
X88778796Y-73723637D01*
X88840774Y-73755217D01*
X88840777Y-73755217D01*
X88840781Y-73755220D01*
X88975245Y-73798910D01*
X89035465Y-73818477D01*
X89120176Y-73831894D01*
X89237648Y-73850500D01*
X89237649Y-73850500D01*
X89442351Y-73850500D01*
X89442352Y-73850500D01*
X89644534Y-73818477D01*
X89839219Y-73755220D01*
X90021610Y-73662287D01*
X90176138Y-73550017D01*
X90187213Y-73541971D01*
X90187215Y-73541968D01*
X90187219Y-73541966D01*
X90331966Y-73397219D01*
X90331968Y-73397215D01*
X90331971Y-73397213D01*
X90388259Y-73319738D01*
X90452287Y-73231610D01*
X90545220Y-73049219D01*
X90608477Y-72854534D01*
X90640500Y-72652352D01*
X90640500Y-72471153D01*
X94649500Y-72471153D01*
X94649500Y-72628846D01*
X94680261Y-72783489D01*
X94680264Y-72783501D01*
X94740602Y-72929172D01*
X94740609Y-72929185D01*
X94828210Y-73060288D01*
X94828213Y-73060292D01*
X94939707Y-73171786D01*
X94939711Y-73171789D01*
X95070814Y-73259390D01*
X95070827Y-73259397D01*
X95216498Y-73319735D01*
X95216503Y-73319737D01*
X95371153Y-73350499D01*
X95371156Y-73350500D01*
X95371158Y-73350500D01*
X95449903Y-73350500D01*
X95516942Y-73370185D01*
X95537584Y-73386819D01*
X98015139Y-75864374D01*
X98015149Y-75864385D01*
X98019479Y-75868715D01*
X98019480Y-75868716D01*
X98131284Y-75980520D01*
X98182845Y-76010288D01*
X98218095Y-76030639D01*
X98218097Y-76030641D01*
X98256151Y-76052611D01*
X98268215Y-76059577D01*
X98420943Y-76100501D01*
X98420946Y-76100501D01*
X98586653Y-76100501D01*
X98586669Y-76100500D01*
X99420234Y-76100500D01*
X99487273Y-76120185D01*
X99489125Y-76121398D01*
X99620814Y-76209390D01*
X99620827Y-76209397D01*
X99766498Y-76269735D01*
X99766503Y-76269737D01*
X99921153Y-76300499D01*
X99921156Y-76300500D01*
X99921158Y-76300500D01*
X100078844Y-76300500D01*
X100078845Y-76300499D01*
X100233497Y-76269737D01*
X100379179Y-76209394D01*
X100510289Y-76121789D01*
X100621789Y-76010289D01*
X100709394Y-75879179D01*
X100769737Y-75733497D01*
X100800500Y-75578842D01*
X100800500Y-75421158D01*
X100800500Y-75421155D01*
X100800499Y-75421153D01*
X100769738Y-75266510D01*
X100769737Y-75266503D01*
X100769735Y-75266498D01*
X100709397Y-75120827D01*
X100709390Y-75120814D01*
X100621789Y-74989711D01*
X100621786Y-74989707D01*
X100510292Y-74878213D01*
X100510288Y-74878210D01*
X100379185Y-74790609D01*
X100379172Y-74790602D01*
X100233501Y-74730264D01*
X100233489Y-74730261D01*
X100078845Y-74699500D01*
X100078842Y-74699500D01*
X99921158Y-74699500D01*
X99921155Y-74699500D01*
X99766510Y-74730261D01*
X99766498Y-74730264D01*
X99620827Y-74790602D01*
X99620814Y-74790609D01*
X99489125Y-74878602D01*
X99422447Y-74899480D01*
X99420234Y-74899500D01*
X98800097Y-74899500D01*
X98733058Y-74879815D01*
X98712416Y-74863181D01*
X96296883Y-72447648D01*
X98199500Y-72447648D01*
X98199500Y-72652351D01*
X98231522Y-72854534D01*
X98294781Y-73049223D01*
X98387715Y-73231613D01*
X98508028Y-73397213D01*
X98652786Y-73541971D01*
X98805327Y-73652796D01*
X98818390Y-73662287D01*
X98914746Y-73711383D01*
X99000776Y-73755218D01*
X99000778Y-73755218D01*
X99000781Y-73755220D01*
X99105137Y-73789127D01*
X99195465Y-73818477D01*
X99280176Y-73831894D01*
X99397648Y-73850500D01*
X99397649Y-73850500D01*
X99602351Y-73850500D01*
X99602352Y-73850500D01*
X99804534Y-73818477D01*
X99999219Y-73755220D01*
X100181610Y-73662287D01*
X100336138Y-73550017D01*
X100347213Y-73541971D01*
X100347215Y-73541968D01*
X100347219Y-73541966D01*
X100491966Y-73397219D01*
X100491968Y-73397215D01*
X100491971Y-73397213D01*
X100548259Y-73319738D01*
X100612287Y-73231610D01*
X100705220Y-73049219D01*
X100768477Y-72854534D01*
X100800500Y-72652352D01*
X100800500Y-72447648D01*
X100784561Y-72347017D01*
X100768477Y-72245465D01*
X100705218Y-72050776D01*
X100642767Y-71928211D01*
X100612287Y-71868390D01*
X100592098Y-71840602D01*
X100491971Y-71702786D01*
X100347213Y-71558028D01*
X100181613Y-71437715D01*
X100181612Y-71437714D01*
X100181610Y-71437713D01*
X100086514Y-71389259D01*
X99999223Y-71344781D01*
X99804534Y-71281522D01*
X99629995Y-71253878D01*
X99602352Y-71249500D01*
X99397648Y-71249500D01*
X99373329Y-71253351D01*
X99195465Y-71281522D01*
X99000776Y-71344781D01*
X98818386Y-71437715D01*
X98652786Y-71558028D01*
X98508028Y-71702786D01*
X98387715Y-71868386D01*
X98294781Y-72050776D01*
X98231522Y-72245465D01*
X98199500Y-72447648D01*
X96296883Y-72447648D01*
X96259743Y-72410508D01*
X96226258Y-72349185D01*
X96225818Y-72347076D01*
X96219737Y-72316503D01*
X96175577Y-72209890D01*
X96159397Y-72170827D01*
X96159390Y-72170814D01*
X96071789Y-72039711D01*
X96071786Y-72039707D01*
X95960292Y-71928213D01*
X95960288Y-71928210D01*
X95829185Y-71840609D01*
X95829172Y-71840602D01*
X95683501Y-71780264D01*
X95683489Y-71780261D01*
X95528845Y-71749500D01*
X95528842Y-71749500D01*
X95371158Y-71749500D01*
X95371155Y-71749500D01*
X95216510Y-71780261D01*
X95216498Y-71780264D01*
X95070827Y-71840602D01*
X95070814Y-71840609D01*
X94939711Y-71928210D01*
X94939707Y-71928213D01*
X94828213Y-72039707D01*
X94828210Y-72039711D01*
X94740609Y-72170814D01*
X94740602Y-72170827D01*
X94680264Y-72316498D01*
X94680261Y-72316510D01*
X94649500Y-72471153D01*
X90640500Y-72471153D01*
X90640500Y-72447648D01*
X90624561Y-72347017D01*
X90608477Y-72245465D01*
X90545218Y-72050776D01*
X90482767Y-71928211D01*
X90452287Y-71868390D01*
X90432098Y-71840602D01*
X90331971Y-71702786D01*
X90187213Y-71558028D01*
X90021613Y-71437715D01*
X90021612Y-71437714D01*
X90021610Y-71437713D01*
X89926514Y-71389259D01*
X89839223Y-71344781D01*
X89644534Y-71281522D01*
X89469995Y-71253878D01*
X89442352Y-71249500D01*
X89237648Y-71249500D01*
X89213329Y-71253351D01*
X89035465Y-71281522D01*
X88840773Y-71344782D01*
X88778794Y-71376363D01*
X88710125Y-71389259D01*
X88645385Y-71362982D01*
X88605128Y-71305876D01*
X88598500Y-71265878D01*
X88598500Y-69784121D01*
X88618185Y-69717082D01*
X88670989Y-69671327D01*
X88740147Y-69661383D01*
X88778796Y-69673637D01*
X88840774Y-69705217D01*
X88840777Y-69705217D01*
X88840781Y-69705220D01*
X88975245Y-69748910D01*
X89035465Y-69768477D01*
X89134237Y-69784121D01*
X89237648Y-69800500D01*
X89237649Y-69800500D01*
X89442351Y-69800500D01*
X89442352Y-69800500D01*
X89644534Y-69768477D01*
X89839219Y-69705220D01*
X90021610Y-69612287D01*
X90114590Y-69544732D01*
X90187213Y-69491971D01*
X90187215Y-69491968D01*
X90187219Y-69491966D01*
X90331966Y-69347219D01*
X90331968Y-69347215D01*
X90331971Y-69347213D01*
X90384732Y-69274590D01*
X90452287Y-69181610D01*
X90545220Y-68999219D01*
X90608477Y-68804534D01*
X90640500Y-68602352D01*
X90640500Y-68397648D01*
X90608477Y-68195466D01*
X90608475Y-68195462D01*
X90608475Y-68195457D01*
X90597545Y-68161817D01*
X90595550Y-68091976D01*
X90631631Y-68032144D01*
X90694332Y-68001316D01*
X90715476Y-67999500D01*
X98124524Y-67999500D01*
X98191563Y-68019185D01*
X98237318Y-68071989D01*
X98247262Y-68141147D01*
X98242455Y-68161817D01*
X98231524Y-68195457D01*
X98231523Y-68195464D01*
X98199500Y-68397648D01*
X98199500Y-68602351D01*
X98231522Y-68804534D01*
X98294781Y-68999223D01*
X98358691Y-69124653D01*
X98387585Y-69181359D01*
X98387715Y-69181613D01*
X98508028Y-69347213D01*
X98652786Y-69491971D01*
X98773226Y-69579474D01*
X98818390Y-69612287D01*
X98914746Y-69661383D01*
X99000776Y-69705218D01*
X99000778Y-69705218D01*
X99000781Y-69705220D01*
X99105137Y-69739127D01*
X99195465Y-69768477D01*
X99294237Y-69784121D01*
X99397648Y-69800500D01*
X99397649Y-69800500D01*
X99602351Y-69800500D01*
X99602352Y-69800500D01*
X99804534Y-69768477D01*
X99999219Y-69705220D01*
X100181610Y-69612287D01*
X100274590Y-69544732D01*
X100347213Y-69491971D01*
X100347215Y-69491968D01*
X100347219Y-69491966D01*
X100491966Y-69347219D01*
X100491968Y-69347215D01*
X100491971Y-69347213D01*
X100612284Y-69181614D01*
X100612285Y-69181613D01*
X100612287Y-69181610D01*
X100704600Y-69000433D01*
X100752573Y-68949640D01*
X100820394Y-68932845D01*
X100886529Y-68955382D01*
X100902765Y-68969050D01*
X102503181Y-70569466D01*
X102536666Y-70630789D01*
X102539500Y-70657147D01*
X102539500Y-70925500D01*
X102519815Y-70992539D01*
X102467011Y-71038294D01*
X102415500Y-71049500D01*
X102239982Y-71049500D01*
X102137203Y-71060000D01*
X102137202Y-71060001D01*
X102054669Y-71087349D01*
X101970667Y-71115185D01*
X101970662Y-71115187D01*
X101821342Y-71207289D01*
X101697289Y-71331342D01*
X101605187Y-71480662D01*
X101605186Y-71480665D01*
X101550001Y-71647202D01*
X101550001Y-71647203D01*
X101550000Y-71647203D01*
X101539500Y-71749982D01*
X101539500Y-73550017D01*
X101550000Y-73652796D01*
X101550001Y-73652798D01*
X101605186Y-73819335D01*
X101697288Y-73968656D01*
X101821344Y-74092712D01*
X101970665Y-74184814D01*
X102137202Y-74239999D01*
X102239990Y-74250500D01*
X102239995Y-74250500D01*
X104040005Y-74250500D01*
X104040010Y-74250500D01*
X104142798Y-74239999D01*
X104309335Y-74184814D01*
X104458656Y-74092712D01*
X104582712Y-73968656D01*
X104674814Y-73819335D01*
X104729999Y-73652798D01*
X104740500Y-73550010D01*
X104740500Y-72524071D01*
X111700000Y-72524071D01*
X111700000Y-72775928D01*
X111739397Y-73024669D01*
X111817219Y-73264184D01*
X111931557Y-73488583D01*
X112005748Y-73590697D01*
X112005748Y-73590698D01*
X112776212Y-72820234D01*
X112787482Y-72862292D01*
X112859890Y-72987708D01*
X112962292Y-73090110D01*
X113087708Y-73162518D01*
X113129765Y-73173787D01*
X112359300Y-73944250D01*
X112461416Y-74018442D01*
X112685815Y-74132780D01*
X112925330Y-74210602D01*
X113174072Y-74250000D01*
X113425928Y-74250000D01*
X113674669Y-74210602D01*
X113914184Y-74132780D01*
X114138575Y-74018446D01*
X114138581Y-74018442D01*
X114240697Y-73944250D01*
X114240698Y-73944250D01*
X113470234Y-73173787D01*
X113512292Y-73162518D01*
X113637708Y-73090110D01*
X113740110Y-72987708D01*
X113812518Y-72862292D01*
X113823787Y-72820235D01*
X114594250Y-73590698D01*
X114594250Y-73590697D01*
X114668442Y-73488581D01*
X114668446Y-73488575D01*
X114782780Y-73264184D01*
X114860602Y-73024669D01*
X114900000Y-72775928D01*
X114900000Y-72524071D01*
X114860602Y-72275330D01*
X114782780Y-72035815D01*
X114668442Y-71811416D01*
X114594250Y-71709301D01*
X114594250Y-71709300D01*
X113823787Y-72479764D01*
X113812518Y-72437708D01*
X113740110Y-72312292D01*
X113637708Y-72209890D01*
X113512292Y-72137482D01*
X113470232Y-72126212D01*
X114240698Y-71355748D01*
X114138583Y-71281557D01*
X113914184Y-71167219D01*
X113674669Y-71089397D01*
X113425928Y-71050000D01*
X113174072Y-71050000D01*
X112925330Y-71089397D01*
X112685815Y-71167219D01*
X112461413Y-71281559D01*
X112359301Y-71355747D01*
X112359300Y-71355748D01*
X113129765Y-72126212D01*
X113087708Y-72137482D01*
X112962292Y-72209890D01*
X112859890Y-72312292D01*
X112787482Y-72437708D01*
X112776212Y-72479765D01*
X112005748Y-71709300D01*
X112005747Y-71709301D01*
X111931559Y-71811413D01*
X111817219Y-72035815D01*
X111739397Y-72275330D01*
X111700000Y-72524071D01*
X104740500Y-72524071D01*
X104740500Y-71749990D01*
X104729999Y-71647202D01*
X104674814Y-71480665D01*
X104582712Y-71331344D01*
X104458656Y-71207288D01*
X104309335Y-71115186D01*
X104142798Y-71060001D01*
X104142796Y-71060000D01*
X104040017Y-71049500D01*
X104040010Y-71049500D01*
X103864500Y-71049500D01*
X103797461Y-71029815D01*
X103751706Y-70977011D01*
X103740500Y-70925500D01*
X103740500Y-70277995D01*
X103740500Y-70277993D01*
X103699577Y-70125266D01*
X103699573Y-70125259D01*
X103620524Y-69988340D01*
X103620521Y-69988336D01*
X103620520Y-69988334D01*
X103508716Y-69876530D01*
X103508715Y-69876529D01*
X103504385Y-69872199D01*
X103504374Y-69872189D01*
X103458700Y-69826515D01*
X103425215Y-69765192D01*
X103430199Y-69695500D01*
X103472071Y-69639567D01*
X103490083Y-69628350D01*
X103521610Y-69612287D01*
X103581501Y-69568774D01*
X103687213Y-69491971D01*
X103687215Y-69491968D01*
X103687219Y-69491966D01*
X103831966Y-69347219D01*
X103831968Y-69347215D01*
X103831971Y-69347213D01*
X103884732Y-69274590D01*
X103952287Y-69181610D01*
X104045220Y-68999219D01*
X104108477Y-68804534D01*
X104140500Y-68602352D01*
X104140500Y-68397682D01*
X111700000Y-68397682D01*
X111700000Y-68602317D01*
X111732009Y-68804417D01*
X111795244Y-68999031D01*
X111888141Y-69181350D01*
X111888147Y-69181359D01*
X111920523Y-69225921D01*
X111920524Y-69225922D01*
X112600000Y-68546446D01*
X112600000Y-68552661D01*
X112627259Y-68654394D01*
X112679920Y-68745606D01*
X112754394Y-68820080D01*
X112845606Y-68872741D01*
X112947339Y-68900000D01*
X112953553Y-68900000D01*
X112274076Y-69579474D01*
X112318650Y-69611859D01*
X112500968Y-69704755D01*
X112695582Y-69767990D01*
X112897683Y-69800000D01*
X113102317Y-69800000D01*
X113304417Y-69767990D01*
X113499031Y-69704755D01*
X113681349Y-69611859D01*
X113725921Y-69579474D01*
X113046447Y-68900000D01*
X113052661Y-68900000D01*
X113154394Y-68872741D01*
X113245606Y-68820080D01*
X113320080Y-68745606D01*
X113372741Y-68654394D01*
X113400000Y-68552661D01*
X113400000Y-68546447D01*
X114079474Y-69225921D01*
X114111859Y-69181349D01*
X114204755Y-68999031D01*
X114267990Y-68804417D01*
X114300000Y-68602317D01*
X114300000Y-68397682D01*
X114267990Y-68195582D01*
X114204755Y-68000968D01*
X114111859Y-67818650D01*
X114079474Y-67774077D01*
X114079474Y-67774076D01*
X113400000Y-68453551D01*
X113400000Y-68447339D01*
X113372741Y-68345606D01*
X113320080Y-68254394D01*
X113245606Y-68179920D01*
X113154394Y-68127259D01*
X113052661Y-68100000D01*
X113046446Y-68100000D01*
X113725922Y-67420524D01*
X113725921Y-67420523D01*
X113681359Y-67388147D01*
X113681350Y-67388141D01*
X113499031Y-67295244D01*
X113304417Y-67232009D01*
X113102317Y-67200000D01*
X112897683Y-67200000D01*
X112695582Y-67232009D01*
X112500968Y-67295244D01*
X112318644Y-67388143D01*
X112274077Y-67420523D01*
X112274077Y-67420524D01*
X112953554Y-68100000D01*
X112947339Y-68100000D01*
X112845606Y-68127259D01*
X112754394Y-68179920D01*
X112679920Y-68254394D01*
X112627259Y-68345606D01*
X112600000Y-68447339D01*
X112600000Y-68453553D01*
X111920524Y-67774077D01*
X111920523Y-67774077D01*
X111888143Y-67818644D01*
X111795244Y-68000968D01*
X111732009Y-68195582D01*
X111700000Y-68397682D01*
X104140500Y-68397682D01*
X104140500Y-68397648D01*
X104132257Y-68345606D01*
X104108477Y-68195465D01*
X104051200Y-68019185D01*
X104045220Y-68000781D01*
X104045218Y-68000778D01*
X104045218Y-68000776D01*
X104002141Y-67916234D01*
X103952287Y-67818390D01*
X103920092Y-67774077D01*
X103831971Y-67652786D01*
X103687213Y-67508028D01*
X103521613Y-67387715D01*
X103521612Y-67387714D01*
X103521610Y-67387713D01*
X103464653Y-67358691D01*
X103339223Y-67294781D01*
X103144534Y-67231522D01*
X102969995Y-67203878D01*
X102942352Y-67199500D01*
X102737648Y-67199500D01*
X102713329Y-67203351D01*
X102535465Y-67231522D01*
X102340776Y-67294781D01*
X102158386Y-67387715D01*
X101992786Y-67508028D01*
X101848028Y-67652786D01*
X101727713Y-67818388D01*
X101711648Y-67849916D01*
X101663672Y-67900711D01*
X101595851Y-67917504D01*
X101529716Y-67894964D01*
X101513484Y-67881299D01*
X100669540Y-67037355D01*
X100669538Y-67037352D01*
X100550667Y-66918481D01*
X100550666Y-66918480D01*
X100463854Y-66868360D01*
X100463854Y-66868359D01*
X100463850Y-66868358D01*
X100413735Y-66839423D01*
X100261007Y-66798499D01*
X100102893Y-66798499D01*
X100095297Y-66798499D01*
X100095281Y-66798500D01*
X88970620Y-66798500D01*
X88970604Y-66798499D01*
X88963008Y-66798499D01*
X88804893Y-66798499D01*
X88728529Y-66818961D01*
X88652164Y-66839423D01*
X88652159Y-66839426D01*
X88515240Y-66918475D01*
X88515232Y-66918481D01*
X87712181Y-67721533D01*
X87650858Y-67755018D01*
X87581166Y-67750034D01*
X87525233Y-67708162D01*
X87500816Y-67642698D01*
X87500500Y-67633852D01*
X87500500Y-65624500D01*
X87520185Y-65557461D01*
X87572989Y-65511706D01*
X87624500Y-65500500D01*
X115375500Y-65500500D01*
X115442539Y-65520185D01*
G37*
%TD.AperFunction*%
%TA.AperFunction,Conductor*%
G36*
X109092540Y-79395185D02*
G01*
X109138295Y-79447989D01*
X109149501Y-79499500D01*
X109149501Y-79622876D01*
X109155908Y-79682483D01*
X109206202Y-79817328D01*
X109206206Y-79817335D01*
X109292452Y-79932544D01*
X109292455Y-79932547D01*
X109407664Y-80018793D01*
X109407671Y-80018797D01*
X109452618Y-80035561D01*
X109542517Y-80069091D01*
X109602127Y-80075500D01*
X109612685Y-80075499D01*
X109679723Y-80095179D01*
X109700372Y-80111818D01*
X110370591Y-80782037D01*
X110307007Y-80799075D01*
X110192993Y-80864901D01*
X110099901Y-80957993D01*
X110034075Y-81072007D01*
X110017037Y-81135591D01*
X109384728Y-80503282D01*
X109384727Y-80503282D01*
X109345380Y-80557439D01*
X109248904Y-80746782D01*
X109183242Y-80948869D01*
X109183242Y-80948872D01*
X109150000Y-81158753D01*
X109150000Y-81371246D01*
X109183242Y-81581127D01*
X109183242Y-81581130D01*
X109206654Y-81653182D01*
X109208649Y-81723023D01*
X109172569Y-81782856D01*
X109109868Y-81813684D01*
X109088723Y-81815500D01*
X107801097Y-81815500D01*
X107734058Y-81795815D01*
X107713416Y-81779181D01*
X107109077Y-81174842D01*
X107075592Y-81113519D01*
X107078828Y-81048841D01*
X107083477Y-81034534D01*
X107115500Y-80832352D01*
X107115500Y-80627648D01*
X107083477Y-80425466D01*
X107020220Y-80230781D01*
X107020218Y-80230778D01*
X107020218Y-80230776D01*
X106951127Y-80095179D01*
X106927287Y-80048390D01*
X106905784Y-80018793D01*
X106806971Y-79882786D01*
X106662213Y-79738028D01*
X106496611Y-79617713D01*
X106481442Y-79609984D01*
X106430647Y-79562010D01*
X106413852Y-79494189D01*
X106436390Y-79428054D01*
X106491105Y-79384603D01*
X106537738Y-79375500D01*
X109025501Y-79375500D01*
X109092540Y-79395185D01*
G37*
%TD.AperFunction*%
%TD*%
M02*
